<?xml version="1.0" encoding="utf-8"?>
<svg xmlns="http://www.w3.org/2000/svg" xmlns:xlink="http://www.w3.org/1999/xlink" width="528" height="336" viewBox="0 0 2112 1344">
<defs>
  <clipPath id="clip570">
    <rect x="0" y="0" width="2112" height="1344"/>
  </clipPath>
</defs>
<path clip-path="url(#clip570)" d="M0 1344 L2112 1344 L2112 0 L0 0  Z" fill="#ffffff" fill-rule="evenodd" fill-opacity="1"/>
<defs>
  <clipPath id="clip571">
    <rect x="170" y="120" width="1895" height="1054"/>
  </clipPath>
</defs>
<path clip-path="url(#clip570)" d="M170.405 1173.47 L2064.76 1173.47 L2064.76 120.723 L170.405 120.723  Z" fill="#ffffff" fill-rule="evenodd" fill-opacity="1"/>
<polyline clip-path="url(#clip571)" style="stroke:#000000; stroke-linecap:round; stroke-linejoin:round; stroke-width:2; stroke-opacity:0.1; fill:none" points="274.598,1173.47 274.598,120.723 "/>
<polyline clip-path="url(#clip571)" style="stroke:#000000; stroke-linecap:round; stroke-linejoin:round; stroke-width:2; stroke-opacity:0.1; fill:none" points="649.257,1173.47 649.257,120.723 "/>
<polyline clip-path="url(#clip571)" style="stroke:#000000; stroke-linecap:round; stroke-linejoin:round; stroke-width:2; stroke-opacity:0.1; fill:none" points="1023.92,1173.47 1023.92,120.723 "/>
<polyline clip-path="url(#clip571)" style="stroke:#000000; stroke-linecap:round; stroke-linejoin:round; stroke-width:2; stroke-opacity:0.1; fill:none" points="1398.57,1173.47 1398.57,120.723 "/>
<polyline clip-path="url(#clip571)" style="stroke:#000000; stroke-linecap:round; stroke-linejoin:round; stroke-width:2; stroke-opacity:0.1; fill:none" points="1773.23,1173.47 1773.23,120.723 "/>
<polyline clip-path="url(#clip571)" style="stroke:#000000; stroke-linecap:round; stroke-linejoin:round; stroke-width:2; stroke-opacity:0.1; fill:none" points="170.405,1173.47 2064.76,1173.47 "/>
<polyline clip-path="url(#clip571)" style="stroke:#000000; stroke-linecap:round; stroke-linejoin:round; stroke-width:2; stroke-opacity:0.1; fill:none" points="170.405,971.997 2064.76,971.997 "/>
<polyline clip-path="url(#clip571)" style="stroke:#000000; stroke-linecap:round; stroke-linejoin:round; stroke-width:2; stroke-opacity:0.1; fill:none" points="170.405,770.522 2064.76,770.522 "/>
<polyline clip-path="url(#clip571)" style="stroke:#000000; stroke-linecap:round; stroke-linejoin:round; stroke-width:2; stroke-opacity:0.1; fill:none" points="170.405,569.048 2064.76,569.048 "/>
<polyline clip-path="url(#clip571)" style="stroke:#000000; stroke-linecap:round; stroke-linejoin:round; stroke-width:2; stroke-opacity:0.1; fill:none" points="170.405,367.574 2064.76,367.574 "/>
<polyline clip-path="url(#clip571)" style="stroke:#000000; stroke-linecap:round; stroke-linejoin:round; stroke-width:2; stroke-opacity:0.1; fill:none" points="170.405,166.1 2064.76,166.1 "/>
<polyline clip-path="url(#clip570)" style="stroke:#000000; stroke-linecap:round; stroke-linejoin:round; stroke-width:4; stroke-opacity:1; fill:none" points="170.405,1173.47 2064.76,1173.47 "/>
<polyline clip-path="url(#clip570)" style="stroke:#000000; stroke-linecap:round; stroke-linejoin:round; stroke-width:4; stroke-opacity:1; fill:none" points="274.598,1173.47 274.598,1154.57 "/>
<polyline clip-path="url(#clip570)" style="stroke:#000000; stroke-linecap:round; stroke-linejoin:round; stroke-width:4; stroke-opacity:1; fill:none" points="649.257,1173.47 649.257,1154.57 "/>
<polyline clip-path="url(#clip570)" style="stroke:#000000; stroke-linecap:round; stroke-linejoin:round; stroke-width:4; stroke-opacity:1; fill:none" points="1023.92,1173.47 1023.92,1154.57 "/>
<polyline clip-path="url(#clip570)" style="stroke:#000000; stroke-linecap:round; stroke-linejoin:round; stroke-width:4; stroke-opacity:1; fill:none" points="1398.57,1173.47 1398.57,1154.57 "/>
<polyline clip-path="url(#clip570)" style="stroke:#000000; stroke-linecap:round; stroke-linejoin:round; stroke-width:4; stroke-opacity:1; fill:none" points="1773.23,1173.47 1773.23,1154.57 "/>
<path clip-path="url(#clip570)" d="M251.982 1202.09 Q248.371 1202.09 246.542 1205.65 Q244.737 1209.19 244.737 1216.32 Q244.737 1223.43 246.542 1226.99 Q248.371 1230.53 251.982 1230.53 Q255.616 1230.53 257.422 1226.99 Q259.251 1223.43 259.251 1216.32 Q259.251 1209.19 257.422 1205.65 Q255.616 1202.09 251.982 1202.09 M251.982 1198.38 Q257.792 1198.38 260.848 1202.99 Q263.927 1207.57 263.927 1216.32 Q263.927 1225.05 260.848 1229.65 Q257.792 1234.24 251.982 1234.24 Q246.172 1234.24 243.093 1229.65 Q240.038 1225.05 240.038 1216.32 Q240.038 1207.57 243.093 1202.99 Q246.172 1198.38 251.982 1198.38 Z" fill="#000000" fill-rule="nonzero" fill-opacity="1" /><path clip-path="url(#clip570)" d="M272.144 1227.69 L277.028 1227.69 L277.028 1233.57 L272.144 1233.57 L272.144 1227.69 Z" fill="#000000" fill-rule="nonzero" fill-opacity="1" /><path clip-path="url(#clip570)" d="M297.213 1202.09 Q293.602 1202.09 291.774 1205.65 Q289.968 1209.19 289.968 1216.32 Q289.968 1223.43 291.774 1226.99 Q293.602 1230.53 297.213 1230.53 Q300.848 1230.53 302.653 1226.99 Q304.482 1223.43 304.482 1216.32 Q304.482 1209.19 302.653 1205.65 Q300.848 1202.09 297.213 1202.09 M297.213 1198.38 Q303.024 1198.38 306.079 1202.99 Q309.158 1207.57 309.158 1216.32 Q309.158 1225.05 306.079 1229.65 Q303.024 1234.24 297.213 1234.24 Q291.403 1234.24 288.325 1229.65 Q285.269 1225.05 285.269 1216.32 Q285.269 1207.57 288.325 1202.99 Q291.403 1198.38 297.213 1198.38 Z" fill="#000000" fill-rule="nonzero" fill-opacity="1" /><path clip-path="url(#clip570)" d="M626.965 1202.09 Q623.354 1202.09 621.526 1205.65 Q619.72 1209.19 619.72 1216.32 Q619.72 1223.43 621.526 1226.99 Q623.354 1230.53 626.965 1230.53 Q630.6 1230.53 632.405 1226.99 Q634.234 1223.43 634.234 1216.32 Q634.234 1209.19 632.405 1205.65 Q630.6 1202.09 626.965 1202.09 M626.965 1198.38 Q632.775 1198.38 635.831 1202.99 Q638.91 1207.57 638.91 1216.32 Q638.91 1225.05 635.831 1229.65 Q632.775 1234.24 626.965 1234.24 Q621.155 1234.24 618.076 1229.65 Q615.021 1225.05 615.021 1216.32 Q615.021 1207.57 618.076 1202.99 Q621.155 1198.38 626.965 1198.38 Z" fill="#000000" fill-rule="nonzero" fill-opacity="1" /><path clip-path="url(#clip570)" d="M647.127 1227.69 L652.011 1227.69 L652.011 1233.57 L647.127 1233.57 L647.127 1227.69 Z" fill="#000000" fill-rule="nonzero" fill-opacity="1" /><path clip-path="url(#clip570)" d="M676.363 1214.93 Q679.72 1215.65 681.595 1217.92 Q683.493 1220.19 683.493 1223.52 Q683.493 1228.64 679.974 1231.44 Q676.456 1234.24 669.974 1234.24 Q667.798 1234.24 665.484 1233.8 Q663.192 1233.38 660.738 1232.53 L660.738 1228.01 Q662.683 1229.15 664.997 1229.72 Q667.312 1230.3 669.835 1230.3 Q674.234 1230.3 676.525 1228.57 Q678.84 1226.83 678.84 1223.52 Q678.84 1220.46 676.687 1218.75 Q674.558 1217.02 670.738 1217.02 L666.71 1217.02 L666.71 1213.17 L670.923 1213.17 Q674.372 1213.17 676.201 1211.81 Q678.03 1210.42 678.03 1207.83 Q678.03 1205.16 676.132 1203.75 Q674.257 1202.32 670.738 1202.32 Q668.817 1202.32 666.618 1202.73 Q664.419 1203.15 661.78 1204.03 L661.78 1199.86 Q664.442 1199.12 666.757 1198.75 Q669.095 1198.38 671.155 1198.38 Q676.479 1198.38 679.581 1200.81 Q682.683 1203.22 682.683 1207.34 Q682.683 1210.21 681.039 1212.2 Q679.396 1214.17 676.363 1214.93 Z" fill="#000000" fill-rule="nonzero" fill-opacity="1" /><path clip-path="url(#clip570)" d="M1001.22 1202.09 Q997.608 1202.09 995.779 1205.65 Q993.974 1209.19 993.974 1216.32 Q993.974 1223.43 995.779 1226.99 Q997.608 1230.53 1001.22 1230.53 Q1004.85 1230.53 1006.66 1226.99 Q1008.49 1223.43 1008.49 1216.32 Q1008.49 1209.19 1006.66 1205.65 Q1004.85 1202.09 1001.22 1202.09 M1001.22 1198.38 Q1007.03 1198.38 1010.08 1202.99 Q1013.16 1207.57 1013.16 1216.32 Q1013.16 1225.05 1010.08 1229.65 Q1007.03 1234.24 1001.22 1234.24 Q995.409 1234.24 992.33 1229.65 Q989.275 1225.05 989.275 1216.32 Q989.275 1207.57 992.33 1202.99 Q995.409 1198.38 1001.22 1198.38 Z" fill="#000000" fill-rule="nonzero" fill-opacity="1" /><path clip-path="url(#clip570)" d="M1021.38 1227.69 L1026.27 1227.69 L1026.27 1233.57 L1021.38 1233.57 L1021.38 1227.69 Z" fill="#000000" fill-rule="nonzero" fill-opacity="1" /><path clip-path="url(#clip570)" d="M1047.03 1214.42 Q1043.88 1214.42 1042.03 1216.58 Q1040.2 1218.73 1040.2 1222.48 Q1040.2 1226.21 1042.03 1228.38 Q1043.88 1230.53 1047.03 1230.53 Q1050.18 1230.53 1052.01 1228.38 Q1053.86 1226.21 1053.86 1222.48 Q1053.86 1218.73 1052.01 1216.58 Q1050.18 1214.42 1047.03 1214.42 M1056.31 1199.77 L1056.31 1204.03 Q1054.55 1203.2 1052.75 1202.76 Q1050.96 1202.32 1049.21 1202.32 Q1044.58 1202.32 1042.12 1205.44 Q1039.69 1208.57 1039.34 1214.89 Q1040.71 1212.87 1042.77 1211.81 Q1044.83 1210.72 1047.31 1210.72 Q1052.52 1210.72 1055.52 1213.89 Q1058.56 1217.04 1058.56 1222.48 Q1058.56 1227.8 1055.41 1231.02 Q1052.26 1234.24 1047.03 1234.24 Q1041.03 1234.24 1037.86 1229.65 Q1034.69 1225.05 1034.69 1216.32 Q1034.69 1208.13 1038.58 1203.27 Q1042.47 1198.38 1049.02 1198.38 Q1050.78 1198.38 1052.56 1198.73 Q1054.37 1199.08 1056.31 1199.77 Z" fill="#000000" fill-rule="nonzero" fill-opacity="1" /><path clip-path="url(#clip570)" d="M1376.05 1202.09 Q1372.44 1202.09 1370.61 1205.65 Q1368.81 1209.19 1368.81 1216.32 Q1368.81 1223.43 1370.61 1226.99 Q1372.44 1230.53 1376.05 1230.53 Q1379.69 1230.53 1381.49 1226.99 Q1383.32 1223.43 1383.32 1216.32 Q1383.32 1209.19 1381.49 1205.65 Q1379.69 1202.09 1376.05 1202.09 M1376.05 1198.38 Q1381.86 1198.38 1384.92 1202.99 Q1388 1207.57 1388 1216.32 Q1388 1225.05 1384.92 1229.65 Q1381.86 1234.24 1376.05 1234.24 Q1370.24 1234.24 1367.16 1229.65 Q1364.11 1225.05 1364.11 1216.32 Q1364.11 1207.57 1367.16 1202.99 Q1370.24 1198.38 1376.05 1198.38 Z" fill="#000000" fill-rule="nonzero" fill-opacity="1" /><path clip-path="url(#clip570)" d="M1396.21 1227.69 L1401.1 1227.69 L1401.1 1233.57 L1396.21 1233.57 L1396.21 1227.69 Z" fill="#000000" fill-rule="nonzero" fill-opacity="1" /><path clip-path="url(#clip570)" d="M1411.42 1232.85 L1411.42 1228.59 Q1413.18 1229.42 1414.99 1229.86 Q1416.79 1230.3 1418.53 1230.3 Q1423.16 1230.3 1425.59 1227.2 Q1428.04 1224.08 1428.39 1217.73 Q1427.05 1219.72 1424.99 1220.79 Q1422.93 1221.85 1420.43 1221.85 Q1415.24 1221.85 1412.21 1218.73 Q1409.2 1215.58 1409.2 1210.14 Q1409.2 1204.82 1412.35 1201.6 Q1415.5 1198.38 1420.73 1198.38 Q1426.72 1198.38 1429.87 1202.99 Q1433.04 1207.57 1433.04 1216.32 Q1433.04 1224.49 1429.15 1229.38 Q1425.29 1234.24 1418.74 1234.24 Q1416.98 1234.24 1415.17 1233.89 Q1413.37 1233.54 1411.42 1232.85 M1420.73 1218.2 Q1423.88 1218.2 1425.7 1216.04 Q1427.56 1213.89 1427.56 1210.14 Q1427.56 1206.41 1425.7 1204.26 Q1423.88 1202.09 1420.73 1202.09 Q1417.58 1202.09 1415.73 1204.26 Q1413.9 1206.41 1413.9 1210.14 Q1413.9 1213.89 1415.73 1216.04 Q1417.58 1218.2 1420.73 1218.2 Z" fill="#000000" fill-rule="nonzero" fill-opacity="1" /><path clip-path="url(#clip570)" d="M1741.19 1229.63 L1748.82 1229.63 L1748.82 1203.27 L1740.51 1204.93 L1740.51 1200.67 L1748.78 1199.01 L1753.45 1199.01 L1753.45 1229.63 L1761.09 1229.63 L1761.09 1233.57 L1741.19 1233.57 L1741.19 1229.63 Z" fill="#000000" fill-rule="nonzero" fill-opacity="1" /><path clip-path="url(#clip570)" d="M1770.54 1227.69 L1775.42 1227.69 L1775.42 1233.57 L1770.54 1233.57 L1770.54 1227.69 Z" fill="#000000" fill-rule="nonzero" fill-opacity="1" /><path clip-path="url(#clip570)" d="M1789.63 1229.63 L1805.95 1229.63 L1805.95 1233.57 L1784.01 1233.57 L1784.01 1229.63 Q1786.67 1226.88 1791.25 1222.25 Q1795.86 1217.59 1797.04 1216.25 Q1799.29 1213.73 1800.17 1211.99 Q1801.07 1210.23 1801.07 1208.54 Q1801.07 1205.79 1799.12 1204.05 Q1797.2 1202.32 1794.1 1202.32 Q1791.9 1202.32 1789.45 1203.08 Q1787.02 1203.84 1784.24 1205.4 L1784.24 1200.67 Q1787.06 1199.54 1789.52 1198.96 Q1791.97 1198.38 1794.01 1198.38 Q1799.38 1198.38 1802.57 1201.07 Q1805.77 1203.75 1805.77 1208.24 Q1805.77 1210.37 1804.96 1212.29 Q1804.17 1214.19 1802.06 1216.78 Q1801.49 1217.46 1798.38 1220.67 Q1795.28 1223.87 1789.63 1229.63 Z" fill="#000000" fill-rule="nonzero" fill-opacity="1" /><path clip-path="url(#clip570)" d="M939.07 1266.49 L939.07 1314.01 L932.832 1314.01 L932.832 1274.26 L911.761 1314.01 L903.104 1314.01 L903.104 1266.49 L909.342 1266.49 L909.342 1306.25 L930.413 1266.49 L939.07 1266.49 Z" fill="#000000" fill-rule="nonzero" fill-opacity="1" /><path clip-path="url(#clip570)" d="M951.388 1278.37 L957.276 1278.37 L957.276 1292.91 L976.278 1292.91 L976.278 1278.37 L982.166 1278.37 L982.166 1314.01 L976.278 1314.01 L976.278 1297.59 L957.276 1297.59 L957.276 1314.01 L951.388 1314.01 L951.388 1278.37 Z" fill="#000000" fill-rule="nonzero" fill-opacity="1" /><path clip-path="url(#clip570)" d="M989.996 1278.37 L1024.15 1278.37 L1024.15 1283.05 L1009.95 1283.05 L1009.95 1314.01 L1004.19 1314.01 L1004.19 1283.05 L989.996 1283.05 L989.996 1278.37 Z" fill="#000000" fill-rule="nonzero" fill-opacity="1" /><path clip-path="url(#clip570)" d="M1062.69 1294.73 L1062.69 1297.59 L1035.77 1297.59 Q1036.15 1303.64 1039.39 1306.82 Q1042.67 1309.97 1048.5 1309.97 Q1051.87 1309.97 1055.02 1309.14 Q1058.2 1308.32 1061.32 1306.66 L1061.32 1312.2 Q1058.17 1313.54 1054.86 1314.24 Q1051.55 1314.94 1048.15 1314.94 Q1039.62 1314.94 1034.62 1309.97 Q1029.65 1305.01 1029.65 1296.54 Q1029.65 1287.79 1034.36 1282.66 Q1039.11 1277.51 1047.13 1277.51 Q1054.32 1277.51 1058.49 1282.15 Q1062.69 1286.77 1062.69 1294.73 M1056.84 1293.01 Q1056.77 1288.2 1054.13 1285.34 Q1051.52 1282.47 1047.19 1282.47 Q1042.29 1282.47 1039.33 1285.24 Q1036.4 1288.01 1035.96 1293.04 L1056.84 1293.01 Z" fill="#000000" fill-rule="nonzero" fill-opacity="1" /><path clip-path="url(#clip570)" d="M1077.97 1308.67 L1077.97 1327.57 L1072.08 1327.57 L1072.08 1278.37 L1077.97 1278.37 L1077.97 1283.78 Q1079.82 1280.59 1082.62 1279.07 Q1085.45 1277.51 1089.36 1277.51 Q1095.86 1277.51 1099.9 1282.66 Q1103.97 1287.82 1103.97 1296.22 Q1103.97 1304.63 1099.9 1309.78 Q1095.86 1314.94 1089.36 1314.94 Q1085.45 1314.94 1082.62 1313.41 Q1079.82 1311.85 1077.97 1308.67 M1097.89 1296.22 Q1097.89 1289.76 1095.22 1286.1 Q1092.58 1282.41 1087.93 1282.41 Q1083.29 1282.41 1080.61 1286.1 Q1077.97 1289.76 1077.97 1296.22 Q1077.97 1302.68 1080.61 1306.38 Q1083.29 1310.04 1087.93 1310.04 Q1092.58 1310.04 1095.22 1306.38 Q1097.89 1302.68 1097.89 1296.22 Z" fill="#000000" fill-rule="nonzero" fill-opacity="1" /><path clip-path="url(#clip570)" d="M1119.32 1297.59 L1119.32 1309.34 L1127.65 1309.34 Q1131.66 1309.34 1133.77 1307.84 Q1135.87 1306.31 1135.87 1303.45 Q1135.87 1300.58 1133.77 1299.09 Q1131.66 1297.59 1127.65 1297.59 L1119.32 1297.59 M1119.32 1283.05 L1119.32 1292.91 L1127.02 1292.91 Q1130.33 1292.91 1132.43 1291.61 Q1134.53 1290.27 1134.53 1287.92 Q1134.53 1285.56 1132.43 1284.32 Q1130.33 1283.05 1127.02 1283.05 L1119.32 1283.05 M1113.46 1278.37 L1127.4 1278.37 Q1133.67 1278.37 1137.04 1280.66 Q1140.42 1282.95 1140.42 1287.18 Q1140.42 1290.46 1138.7 1292.4 Q1136.98 1294.31 1133.61 1294.79 Q1137.65 1295.55 1139.88 1297.97 Q1142.1 1300.39 1142.1 1304.02 Q1142.1 1308.79 1138.41 1311.4 Q1134.75 1314.01 1127.94 1314.01 L1113.46 1314.01 L1113.46 1278.37 Z" fill="#000000" fill-rule="nonzero" fill-opacity="1" /><path clip-path="url(#clip570)" d="M1168.3 1296.1 Q1161.2 1296.1 1158.46 1297.72 Q1155.73 1299.34 1155.73 1303.26 Q1155.73 1306.38 1157.76 1308.22 Q1159.83 1310.04 1163.37 1310.04 Q1168.24 1310.04 1171.16 1306.6 Q1174.12 1303.13 1174.12 1297.4 L1174.12 1296.1 L1168.3 1296.1 M1179.98 1293.68 L1179.98 1314.01 L1174.12 1314.01 L1174.12 1308.6 Q1172.12 1311.85 1169.13 1313.41 Q1166.13 1314.94 1161.81 1314.94 Q1156.33 1314.94 1153.09 1311.88 Q1149.87 1308.79 1149.87 1303.64 Q1149.87 1297.62 1153.88 1294.57 Q1157.92 1291.51 1165.91 1291.51 L1174.12 1291.51 L1174.12 1290.94 Q1174.12 1286.9 1171.45 1284.7 Q1168.81 1282.47 1164 1282.47 Q1160.95 1282.47 1158.05 1283.2 Q1155.15 1283.94 1152.48 1285.4 L1152.48 1279.99 Q1155.7 1278.75 1158.72 1278.14 Q1161.74 1277.51 1164.61 1277.51 Q1172.34 1277.51 1176.16 1281.52 Q1179.98 1285.53 1179.98 1293.68 Z" fill="#000000" fill-rule="nonzero" fill-opacity="1" /><path clip-path="url(#clip570)" d="M1188.32 1314.01 L1188.32 1309.14 Q1194.11 1308.25 1195.89 1304.24 Q1198.06 1298.61 1198.06 1284.19 L1198.06 1278.37 L1222.15 1278.37 L1222.15 1314.01 L1216.3 1314.01 L1216.3 1283.05 L1203.92 1283.05 L1203.92 1286.58 Q1203.92 1300.33 1201.11 1306.5 Q1198.12 1313.09 1188.32 1314.01 Z" fill="#000000" fill-rule="nonzero" fill-opacity="1" /><path clip-path="url(#clip570)" d="M1268.5 1264.55 Q1264.23 1271.87 1262.16 1279.04 Q1260.09 1286.2 1260.09 1293.55 Q1260.09 1300.9 1262.16 1308.13 Q1264.26 1315.32 1268.5 1322.61 L1263.4 1322.61 Q1258.63 1315.13 1256.24 1307.9 Q1253.89 1300.68 1253.89 1293.55 Q1253.89 1286.45 1256.24 1279.26 Q1258.6 1272.06 1263.4 1264.55 L1268.5 1264.55 Z" fill="#000000" fill-rule="nonzero" fill-opacity="1" /><path clip-path="url(#clip570)" d="M1300.45 1314.01 L1300.45 1299.02 L1289.53 1299.02 Q1284.66 1299.02 1281.42 1296 Q1278.49 1293.26 1278.49 1287.41 L1278.49 1278.37 L1284.35 1278.37 L1284.35 1286.87 Q1284.35 1290.59 1286 1292.47 Q1287.69 1294.34 1291 1294.34 L1300.45 1294.34 L1300.45 1278.37 L1306.31 1278.37 L1306.31 1314.01 L1300.45 1314.01 Z" fill="#000000" fill-rule="nonzero" fill-opacity="1" /><path clip-path="url(#clip570)" d="M1317.45 1264.55 L1322.54 1264.55 Q1327.31 1272.06 1329.67 1279.26 Q1332.06 1286.45 1332.06 1293.55 Q1332.06 1300.68 1329.67 1307.9 Q1327.31 1315.13 1322.54 1322.61 L1317.45 1322.61 Q1321.68 1315.32 1323.75 1308.13 Q1325.85 1300.9 1325.85 1293.55 Q1325.85 1286.2 1323.75 1279.04 Q1321.68 1271.87 1317.45 1264.55 Z" fill="#000000" fill-rule="nonzero" fill-opacity="1" /><polyline clip-path="url(#clip570)" style="stroke:#000000; stroke-linecap:round; stroke-linejoin:round; stroke-width:4; stroke-opacity:1; fill:none" points="170.405,1173.47 170.405,120.723 "/>
<polyline clip-path="url(#clip570)" style="stroke:#000000; stroke-linecap:round; stroke-linejoin:round; stroke-width:4; stroke-opacity:1; fill:none" points="170.405,1173.47 189.303,1173.47 "/>
<polyline clip-path="url(#clip570)" style="stroke:#000000; stroke-linecap:round; stroke-linejoin:round; stroke-width:4; stroke-opacity:1; fill:none" points="170.405,971.997 189.303,971.997 "/>
<polyline clip-path="url(#clip570)" style="stroke:#000000; stroke-linecap:round; stroke-linejoin:round; stroke-width:4; stroke-opacity:1; fill:none" points="170.405,770.522 189.303,770.522 "/>
<polyline clip-path="url(#clip570)" style="stroke:#000000; stroke-linecap:round; stroke-linejoin:round; stroke-width:4; stroke-opacity:1; fill:none" points="170.405,569.048 189.303,569.048 "/>
<polyline clip-path="url(#clip570)" style="stroke:#000000; stroke-linecap:round; stroke-linejoin:round; stroke-width:4; stroke-opacity:1; fill:none" points="170.405,367.574 189.303,367.574 "/>
<polyline clip-path="url(#clip570)" style="stroke:#000000; stroke-linecap:round; stroke-linejoin:round; stroke-width:4; stroke-opacity:1; fill:none" points="170.405,166.1 189.303,166.1 "/>
<path clip-path="url(#clip570)" d="M126.781 1159.27 Q123.17 1159.27 121.341 1162.83 Q119.535 1166.38 119.535 1173.51 Q119.535 1180.61 121.341 1184.18 Q123.17 1187.72 126.781 1187.72 Q130.415 1187.72 132.221 1184.18 Q134.049 1180.61 134.049 1173.51 Q134.049 1166.38 132.221 1162.83 Q130.415 1159.27 126.781 1159.27 M126.781 1155.57 Q132.591 1155.57 135.647 1160.17 Q138.725 1164.76 138.725 1173.51 Q138.725 1182.23 135.647 1186.84 Q132.591 1191.42 126.781 1191.42 Q120.971 1191.42 117.892 1186.84 Q114.836 1182.23 114.836 1173.51 Q114.836 1164.76 117.892 1160.17 Q120.971 1155.57 126.781 1155.57 Z" fill="#000000" fill-rule="nonzero" fill-opacity="1" /><path clip-path="url(#clip570)" d="M118.818 985.341 L126.457 985.341 L126.457 958.976 L118.147 960.643 L118.147 956.383 L126.41 954.717 L131.086 954.717 L131.086 985.341 L138.725 985.341 L138.725 989.277 L118.818 989.277 L118.818 985.341 Z" fill="#000000" fill-rule="nonzero" fill-opacity="1" /><path clip-path="url(#clip570)" d="M122.406 783.867 L138.725 783.867 L138.725 787.802 L116.781 787.802 L116.781 783.867 Q119.443 781.113 124.026 776.483 Q128.633 771.83 129.813 770.488 Q132.059 767.965 132.938 766.229 Q133.841 764.469 133.841 762.779 Q133.841 760.025 131.897 758.289 Q129.975 756.553 126.873 756.553 Q124.674 756.553 122.221 757.317 Q119.79 758.08 117.012 759.631 L117.012 754.909 Q119.836 753.775 122.29 753.196 Q124.744 752.617 126.781 752.617 Q132.151 752.617 135.346 755.303 Q138.54 757.988 138.54 762.479 Q138.54 764.608 137.73 766.529 Q136.943 768.428 134.836 771.02 Q134.258 771.691 131.156 774.909 Q128.054 778.103 122.406 783.867 Z" fill="#000000" fill-rule="nonzero" fill-opacity="1" /><path clip-path="url(#clip570)" d="M131.596 567.694 Q134.952 568.412 136.827 570.68 Q138.725 572.949 138.725 576.282 Q138.725 581.398 135.207 584.199 Q131.688 587 125.207 587 Q123.031 587 120.716 586.56 Q118.424 586.143 115.971 585.287 L115.971 580.773 Q117.915 581.907 120.23 582.486 Q122.545 583.064 125.068 583.064 Q129.466 583.064 131.758 581.328 Q134.072 579.592 134.072 576.282 Q134.072 573.227 131.92 571.514 Q129.79 569.778 125.971 569.778 L121.943 569.778 L121.943 565.935 L126.156 565.935 Q129.605 565.935 131.434 564.569 Q133.262 563.18 133.262 560.588 Q133.262 557.926 131.364 556.514 Q129.489 555.079 125.971 555.079 Q124.049 555.079 121.85 555.495 Q119.651 555.912 117.012 556.791 L117.012 552.625 Q119.674 551.884 121.989 551.514 Q124.327 551.143 126.387 551.143 Q131.711 551.143 134.813 553.574 Q137.915 555.981 137.915 560.102 Q137.915 562.972 136.272 564.963 Q134.628 566.93 131.596 567.694 Z" fill="#000000" fill-rule="nonzero" fill-opacity="1" /><path clip-path="url(#clip570)" d="M129.142 354.368 L117.336 372.817 L129.142 372.817 L129.142 354.368 M127.915 350.294 L133.795 350.294 L133.795 372.817 L138.725 372.817 L138.725 376.706 L133.795 376.706 L133.795 384.854 L129.142 384.854 L129.142 376.706 L113.54 376.706 L113.54 372.192 L127.915 350.294 Z" fill="#000000" fill-rule="nonzero" fill-opacity="1" /><path clip-path="url(#clip570)" d="M117.823 148.82 L136.179 148.82 L136.179 152.755 L122.105 152.755 L122.105 161.227 Q123.123 160.88 124.142 160.718 Q125.16 160.533 126.179 160.533 Q131.966 160.533 135.346 163.704 Q138.725 166.876 138.725 172.292 Q138.725 177.871 135.253 180.973 Q131.781 184.051 125.461 184.051 Q123.285 184.051 121.017 183.681 Q118.772 183.311 116.364 182.57 L116.364 177.871 Q118.448 179.005 120.67 179.561 Q122.892 180.116 125.369 180.116 Q129.373 180.116 131.711 178.01 Q134.049 175.903 134.049 172.292 Q134.049 168.681 131.711 166.575 Q129.373 164.468 125.369 164.468 Q123.494 164.468 121.619 164.885 Q119.767 165.301 117.823 166.181 L117.823 148.82 Z" fill="#000000" fill-rule="nonzero" fill-opacity="1" /><path clip-path="url(#clip570)" d="M20.0842 787.381 L67.6042 787.381 L67.6042 793.811 L25.495 793.811 L25.495 817.173 L67.6042 817.173 L67.6042 823.602 L20.0842 823.602 L20.0842 787.381 Z" fill="#000000" fill-rule="nonzero" fill-opacity="1" /><path clip-path="url(#clip570)" d="M67.6042 778.565 L62.7344 778.565 Q61.8432 772.772 57.8328 770.989 Q52.1991 768.825 37.7808 768.825 L31.9562 768.825 L31.9562 744.731 L67.6042 744.731 L67.6042 750.587 L36.635 750.587 L36.635 762.969 L40.168 762.969 Q53.9179 762.969 60.0926 765.77 Q66.6811 768.761 67.6042 778.565 Z" fill="#000000" fill-rule="nonzero" fill-opacity="1" /><path clip-path="url(#clip570)" d="M36.0621 719.364 Q36.0621 724.074 39.7542 726.811 Q43.4145 729.549 49.812 729.549 Q56.2095 729.549 59.9017 726.843 Q63.5619 724.106 63.5619 719.364 Q63.5619 714.685 59.8698 711.948 Q56.1777 709.21 49.812 709.21 Q43.4781 709.21 39.786 711.948 Q36.0621 714.685 36.0621 719.364 M31.0968 719.364 Q31.0968 711.725 36.0621 707.364 Q41.0273 703.004 49.812 703.004 Q58.5649 703.004 63.5619 707.364 Q68.5272 711.725 68.5272 719.364 Q68.5272 727.034 63.5619 731.395 Q58.5649 735.723 49.812 735.723 Q41.0273 735.723 36.0621 731.395 Q31.0968 727.034 31.0968 719.364 Z" fill="#000000" fill-rule="nonzero" fill-opacity="1" /><path clip-path="url(#clip570)" d="M31.9562 697.529 L31.9562 663.377 L36.635 663.377 L36.635 677.573 L67.6042 677.573 L67.6042 683.334 L36.635 683.334 L36.635 697.529 L31.9562 697.529 Z" fill="#000000" fill-rule="nonzero" fill-opacity="1" /><path clip-path="url(#clip570)" d="M31.9562 655.547 L31.9562 649.659 L46.5018 649.659 L46.5018 630.657 L31.9562 630.657 L31.9562 624.769 L67.6042 624.769 L67.6042 630.657 L51.1806 630.657 L51.1806 649.659 L67.6042 649.659 L67.6042 655.547 L31.9562 655.547 Z" fill="#000000" fill-rule="nonzero" fill-opacity="1" /><path clip-path="url(#clip570)" d="M36.0621 598.893 Q36.0621 603.603 39.7542 606.34 Q43.4145 609.078 49.812 609.078 Q56.2095 609.078 59.9017 606.372 Q63.5619 603.635 63.5619 598.893 Q63.5619 594.214 59.8698 591.477 Q56.1777 588.739 49.812 588.739 Q43.4781 588.739 39.786 591.477 Q36.0621 594.214 36.0621 598.893 M31.0968 598.893 Q31.0968 591.254 36.0621 586.893 Q41.0273 582.533 49.812 582.533 Q58.5649 582.533 63.5619 586.893 Q68.5272 591.254 68.5272 598.893 Q68.5272 606.563 63.5619 610.924 Q58.5649 615.252 49.812 615.252 Q41.0273 615.252 36.0621 610.924 Q31.0968 606.563 31.0968 598.893 Z" fill="#000000" fill-rule="nonzero" fill-opacity="1" /><path clip-path="url(#clip570)" d="M33.3248 547.171 L38.7993 547.171 Q37.4307 549.654 36.7623 552.168 Q36.0621 554.651 36.0621 557.197 Q36.0621 562.895 39.6905 566.046 Q43.2872 569.197 49.812 569.197 Q56.3369 569.197 59.9653 566.046 Q63.5619 562.895 63.5619 557.197 Q63.5619 554.651 62.8935 552.168 Q62.1933 549.654 60.8247 547.171 L66.2355 547.171 Q67.3814 549.622 67.9543 552.264 Q68.5272 554.874 68.5272 557.834 Q68.5272 565.886 63.4664 570.629 Q58.4057 575.371 49.812 575.371 Q41.091 575.371 36.0939 570.597 Q31.0968 565.791 31.0968 557.452 Q31.0968 554.746 31.6697 552.168 Q32.2108 549.59 33.3248 547.171 Z" fill="#000000" fill-rule="nonzero" fill-opacity="1" /><path clip-path="url(#clip570)" d="M31.9562 541.219 L31.9562 507.067 L36.635 507.067 L36.635 521.263 L67.6042 521.263 L67.6042 527.024 L36.635 527.024 L36.635 541.219 L31.9562 541.219 Z" fill="#000000" fill-rule="nonzero" fill-opacity="1" /><path clip-path="url(#clip570)" d="M57.0371 476.83 Q54.1725 476.83 52.6766 478.931 Q51.1806 481 51.1806 485.01 L51.1806 493.349 L62.9254 493.349 L62.9254 485.01 Q62.9254 481 61.4294 478.931 Q59.9017 476.83 57.0371 476.83 M31.9562 499.237 L31.9562 493.349 L46.5018 493.349 L46.5018 484.755 Q46.5018 477.944 49.1118 474.284 Q51.6899 470.592 57.0371 470.592 Q62.3843 470.592 64.9942 474.284 Q67.6042 477.944 67.6042 484.755 L67.6042 499.237 L31.9562 499.237 Z" fill="#000000" fill-rule="nonzero" fill-opacity="1" /><path clip-path="url(#clip570)" d="M168.555 18.8205 L168.555 41.5461 L178.844 41.5461 Q184.556 41.5461 187.675 38.5889 Q190.794 35.6318 190.794 30.163 Q190.794 24.7348 187.675 21.7777 Q184.556 18.8205 178.844 18.8205 L168.555 18.8205 M160.372 12.096 L178.844 12.096 Q189.012 12.096 194.197 16.714 Q199.423 21.2916 199.423 30.163 Q199.423 39.1155 194.197 43.6931 Q189.012 48.2706 178.844 48.2706 L168.555 48.2706 L168.555 72.576 L160.372 72.576 L160.372 12.096 Z" fill="#000000" fill-rule="nonzero" fill-opacity="1" /><path clip-path="url(#clip570)" d="M230.696 49.7694 Q221.662 49.7694 218.179 51.8354 Q214.695 53.9013 214.695 58.8839 Q214.695 62.8538 217.287 65.2034 Q219.92 67.5124 224.417 67.5124 Q230.615 67.5124 234.342 63.1374 Q238.109 58.7219 238.109 51.4303 L238.109 49.7694 L230.696 49.7694 M245.563 46.6907 L245.563 72.576 L238.109 72.576 L238.109 65.6895 Q235.557 69.8214 231.749 71.8063 Q227.941 73.7508 222.432 73.7508 Q215.464 73.7508 211.333 69.8619 Q207.241 65.9325 207.241 59.3701 Q207.241 51.7138 212.345 47.825 Q217.49 43.9361 227.658 43.9361 L238.109 43.9361 L238.109 43.2069 Q238.109 38.0623 234.706 35.2672 Q231.344 32.4315 225.227 32.4315 Q221.338 32.4315 217.652 33.3632 Q213.966 34.295 210.563 36.1584 L210.563 29.2718 Q214.654 27.692 218.503 26.9223 Q222.351 26.1121 225.997 26.1121 Q235.84 26.1121 240.702 31.2163 Q245.563 36.3204 245.563 46.6907 Z" fill="#000000" fill-rule="nonzero" fill-opacity="1" /><path clip-path="url(#clip570)" d="M293.566 28.9478 L293.566 35.9153 Q290.406 34.1734 287.206 33.3227 Q284.046 32.4315 280.806 32.4315 Q273.554 32.4315 269.544 37.0496 Q265.534 41.6271 265.534 49.9314 Q265.534 58.2358 269.544 62.8538 Q273.554 67.4314 280.806 67.4314 Q284.046 67.4314 287.206 66.5807 Q290.406 65.6895 293.566 63.9476 L293.566 70.8341 Q290.447 72.2924 287.084 73.0216 Q283.763 73.7508 279.995 73.7508 Q269.747 73.7508 263.711 67.3098 Q257.675 60.8689 257.675 49.9314 Q257.675 38.832 263.751 32.472 Q269.868 26.1121 280.481 26.1121 Q283.925 26.1121 287.206 26.8413 Q290.487 27.5299 293.566 28.9478 Z" fill="#000000" fill-rule="nonzero" fill-opacity="1" /><path clip-path="url(#clip570)" d="M345.417 27.2059 L345.417 72.576 L337.923 72.576 L337.923 33.1607 L313.739 33.1607 L313.739 72.576 L306.245 72.576 L306.245 27.2059 L345.417 27.2059 Z" fill="#000000" fill-rule="nonzero" fill-opacity="1" /><path clip-path="url(#clip570)" d="M367.981 65.7705 L367.981 89.8329 L360.487 89.8329 L360.487 27.2059 L367.981 27.2059 L367.981 34.0924 Q370.331 30.0415 373.895 28.0971 Q377.501 26.1121 382.483 26.1121 Q390.747 26.1121 395.892 32.6746 Q401.077 39.2371 401.077 49.9314 Q401.077 60.6258 395.892 67.1883 Q390.747 73.7508 382.483 73.7508 Q377.501 73.7508 373.895 71.8063 Q370.331 69.8214 367.981 65.7705 M393.34 49.9314 Q393.34 41.7081 389.937 37.0496 Q386.575 32.3505 380.66 32.3505 Q374.746 32.3505 371.343 37.0496 Q367.981 41.7081 367.981 49.9314 Q367.981 58.1548 371.343 62.8538 Q374.746 67.5124 380.66 67.5124 Q386.575 67.5124 389.937 62.8538 Q393.34 58.1548 393.34 49.9314 Z" fill="#000000" fill-rule="nonzero" fill-opacity="1" /><path clip-path="url(#clip570)" d="M452.24 48.0275 L452.24 51.6733 L417.969 51.6733 Q418.455 59.3701 422.587 63.421 Q426.76 67.4314 434.173 67.4314 Q438.467 67.4314 442.477 66.3781 Q446.528 65.3249 450.498 63.2184 L450.498 70.267 Q446.488 71.9684 442.275 72.8596 Q438.062 73.7508 433.727 73.7508 Q422.871 73.7508 416.511 67.4314 Q410.191 61.1119 410.191 50.3365 Q410.191 39.1965 416.187 32.6746 Q422.223 26.1121 432.431 26.1121 Q441.586 26.1121 446.893 32.0264 Q452.24 37.9003 452.24 48.0275 M444.786 45.84 Q444.705 39.7232 441.343 36.0774 Q438.021 32.4315 432.512 32.4315 Q426.273 32.4315 422.506 35.9558 Q418.779 39.4801 418.212 45.8805 L444.786 45.84 Z" fill="#000000" fill-rule="nonzero" fill-opacity="1" /><path clip-path="url(#clip570)" d="M474.601 66.6212 L496.233 66.6212 L496.233 33.1607 L480.556 33.1607 L480.556 38.832 Q480.556 55.5217 475.776 64.4337 L474.601 66.6212 M463.785 66.6212 Q467.471 65.0008 469.092 61.5575 Q473.061 53.0101 473.061 35.7938 L473.061 27.2059 L503.727 27.2059 L503.727 66.6212 L509.682 66.6212 L509.682 84.0401 L503.727 84.0401 L503.727 72.576 L466.945 72.576 L466.945 84.0401 L460.99 84.0401 L460.99 66.6212 L463.785 66.6212 Z" fill="#000000" fill-rule="nonzero" fill-opacity="1" /><path clip-path="url(#clip570)" d="M560.642 48.0275 L560.642 51.6733 L526.371 51.6733 Q526.857 59.3701 530.989 63.421 Q535.162 67.4314 542.575 67.4314 Q546.869 67.4314 550.879 66.3781 Q554.93 65.3249 558.9 63.2184 L558.9 70.267 Q554.89 71.9684 550.677 72.8596 Q546.464 73.7508 542.129 73.7508 Q531.273 73.7508 524.913 67.4314 Q518.594 61.1119 518.594 50.3365 Q518.594 39.1965 524.589 32.6746 Q530.625 26.1121 540.833 26.1121 Q549.988 26.1121 555.295 32.0264 Q560.642 37.9003 560.642 48.0275 M553.188 45.84 Q553.107 39.7232 549.745 36.0774 Q546.423 32.4315 540.914 32.4315 Q534.676 32.4315 530.908 35.9558 Q527.182 39.4801 526.614 45.8805 L553.188 45.84 Z" fill="#000000" fill-rule="nonzero" fill-opacity="1" /><path clip-path="url(#clip570)" d="M568.136 72.576 L568.136 66.3781 Q575.509 65.2439 577.777 60.1397 Q580.532 52.9696 580.532 34.619 L580.532 27.2059 L611.197 27.2059 L611.197 72.576 L603.744 72.576 L603.744 33.1607 L587.986 33.1607 L587.986 37.6572 Q587.986 55.1571 584.421 63.0159 Q580.613 71.4012 568.136 72.576 Z" fill="#000000" fill-rule="nonzero" fill-opacity="1" /><path clip-path="url(#clip570)" d="M664.71 48.0275 L664.71 51.6733 L630.439 51.6733 Q630.925 59.3701 635.057 63.421 Q639.23 67.4314 646.643 67.4314 Q650.937 67.4314 654.947 66.3781 Q658.998 65.3249 662.968 63.2184 L662.968 70.267 Q658.957 71.9684 654.744 72.8596 Q650.532 73.7508 646.197 73.7508 Q635.341 73.7508 628.981 67.4314 Q622.661 61.1119 622.661 50.3365 Q622.661 39.1965 628.657 32.6746 Q634.693 26.1121 644.901 26.1121 Q654.056 26.1121 659.363 32.0264 Q664.71 37.9003 664.71 48.0275 M657.256 45.84 Q657.175 39.7232 653.813 36.0774 Q650.491 32.4315 644.982 32.4315 Q638.743 32.4315 634.976 35.9558 Q631.249 39.4801 630.682 45.8805 L657.256 45.84 Z" fill="#000000" fill-rule="nonzero" fill-opacity="1" /><path clip-path="url(#clip570)" d="M676.66 27.2059 L684.154 27.2059 L684.154 45.7185 L708.338 45.7185 L708.338 27.2059 L715.832 27.2059 L715.832 72.576 L708.338 72.576 L708.338 51.6733 L684.154 51.6733 L684.154 72.576 L676.66 72.576 L676.66 27.2059 Z" fill="#000000" fill-rule="nonzero" fill-opacity="1" /><path clip-path="url(#clip570)" d="M769.75 27.2059 L769.75 72.576 L762.337 72.576 L762.337 36.1584 L740.462 72.576 L730.901 72.576 L730.901 27.2059 L738.315 27.2059 L738.315 63.5425 L760.149 27.2059 L769.75 27.2059 Z" fill="#000000" fill-rule="nonzero" fill-opacity="1" /><path clip-path="url(#clip570)" d="M823.91 48.0275 L823.91 51.6733 L789.64 51.6733 Q790.126 59.3701 794.258 63.421 Q798.43 67.4314 805.843 67.4314 Q810.137 67.4314 814.148 66.3781 Q818.198 65.3249 822.168 63.2184 L822.168 70.267 Q818.158 71.9684 813.945 72.8596 Q809.732 73.7508 805.398 73.7508 Q794.541 73.7508 788.181 67.4314 Q781.862 61.1119 781.862 50.3365 Q781.862 39.1965 787.857 32.6746 Q793.893 26.1121 804.101 26.1121 Q813.256 26.1121 818.563 32.0264 Q823.91 37.9003 823.91 48.0275 M816.457 45.84 Q816.376 39.7232 813.013 36.0774 Q809.692 32.4315 804.182 32.4315 Q797.944 32.4315 794.177 35.9558 Q790.45 39.4801 789.883 45.8805 L816.457 45.84 Z" fill="#000000" fill-rule="nonzero" fill-opacity="1" /><path clip-path="url(#clip570)" d="M901.08 27.2059 L901.08 72.576 L893.667 72.576 L893.667 36.1584 L871.792 72.576 L862.232 72.576 L862.232 27.2059 L869.645 27.2059 L869.645 63.5425 L891.479 27.2059 L901.08 27.2059 Z" fill="#000000" fill-rule="nonzero" fill-opacity="1" /><path clip-path="url(#clip570)" d="M916.149 27.2059 L923.644 27.2059 L923.644 45.7185 L947.827 45.7185 L947.827 27.2059 L955.322 27.2059 L955.322 72.576 L947.827 72.576 L947.827 51.6733 L923.644 51.6733 L923.644 72.576 L916.149 72.576 L916.149 27.2059 Z" fill="#000000" fill-rule="nonzero" fill-opacity="1" /><path clip-path="url(#clip570)" d="M965.287 27.2059 L1008.75 27.2059 L1008.75 33.1607 L990.686 33.1607 L990.686 72.576 L983.354 72.576 L983.354 33.1607 L965.287 33.1607 L965.287 27.2059 Z" fill="#000000" fill-rule="nonzero" fill-opacity="1" /><path clip-path="url(#clip570)" d="M1057.81 48.0275 L1057.81 51.6733 L1023.54 51.6733 Q1024.02 59.3701 1028.16 63.421 Q1032.33 67.4314 1039.74 67.4314 Q1044.04 67.4314 1048.05 66.3781 Q1052.1 65.3249 1056.07 63.2184 L1056.07 70.267 Q1052.06 71.9684 1047.84 72.8596 Q1043.63 73.7508 1039.3 73.7508 Q1028.44 73.7508 1022.08 67.4314 Q1015.76 61.1119 1015.76 50.3365 Q1015.76 39.1965 1021.76 32.6746 Q1027.79 26.1121 1038 26.1121 Q1047.16 26.1121 1052.46 32.0264 Q1057.81 37.9003 1057.81 48.0275 M1050.36 45.84 Q1050.27 39.7232 1046.91 36.0774 Q1043.59 32.4315 1038.08 32.4315 Q1031.84 32.4315 1028.08 35.9558 Q1024.35 39.4801 1023.78 45.8805 L1050.36 45.84 Z" fill="#000000" fill-rule="nonzero" fill-opacity="1" /><path clip-path="url(#clip570)" d="M1077.25 65.7705 L1077.25 89.8329 L1069.76 89.8329 L1069.76 27.2059 L1077.25 27.2059 L1077.25 34.0924 Q1079.6 30.0415 1083.17 28.0971 Q1086.77 26.1121 1091.76 26.1121 Q1100.02 26.1121 1105.16 32.6746 Q1110.35 39.2371 1110.35 49.9314 Q1110.35 60.6258 1105.16 67.1883 Q1100.02 73.7508 1091.76 73.7508 Q1086.77 73.7508 1083.17 71.8063 Q1079.6 69.8214 1077.25 65.7705 M1102.61 49.9314 Q1102.61 41.7081 1099.21 37.0496 Q1095.85 32.3505 1089.93 32.3505 Q1084.02 32.3505 1080.62 37.0496 Q1077.25 41.7081 1077.25 49.9314 Q1077.25 58.1548 1080.62 62.8538 Q1084.02 67.5124 1089.93 67.5124 Q1095.85 67.5124 1099.21 62.8538 Q1102.61 58.1548 1102.61 49.9314 Z" fill="#000000" fill-rule="nonzero" fill-opacity="1" /><path clip-path="url(#clip570)" d="M1129.88 51.6733 L1129.88 66.6212 L1140.49 66.6212 Q1145.59 66.6212 1148.27 64.7172 Q1150.94 62.7728 1150.94 59.127 Q1150.94 55.4812 1148.27 53.5773 Q1145.59 51.6733 1140.49 51.6733 L1129.88 51.6733 M1129.88 33.1607 L1129.88 45.7185 L1139.68 45.7185 Q1143.89 45.7185 1146.56 44.0576 Q1149.24 42.3563 1149.24 39.3586 Q1149.24 36.3609 1146.56 34.7811 Q1143.89 33.1607 1139.68 33.1607 L1129.88 33.1607 M1122.42 27.2059 L1140.16 27.2059 Q1148.14 27.2059 1152.44 30.1225 Q1156.73 33.0392 1156.73 38.4269 Q1156.73 42.5993 1154.55 45.0704 Q1152.36 47.5009 1148.06 48.1085 Q1153.21 49.0808 1156.04 52.1594 Q1158.88 55.2381 1158.88 59.8562 Q1158.88 65.9325 1154.18 69.2543 Q1149.52 72.576 1140.85 72.576 L1122.42 72.576 L1122.42 27.2059 Z" fill="#000000" fill-rule="nonzero" fill-opacity="1" /><path clip-path="url(#clip570)" d="M1192.22 49.7694 Q1183.18 49.7694 1179.7 51.8354 Q1176.22 53.9013 1176.22 58.8839 Q1176.22 62.8538 1178.81 65.2034 Q1181.44 67.5124 1185.94 67.5124 Q1192.14 67.5124 1195.86 63.1374 Q1199.63 58.7219 1199.63 51.4303 L1199.63 49.7694 L1192.22 49.7694 M1207.09 46.6907 L1207.09 72.576 L1199.63 72.576 L1199.63 65.6895 Q1197.08 69.8214 1193.27 71.8063 Q1189.46 73.7508 1183.95 73.7508 Q1176.99 73.7508 1172.86 69.8619 Q1168.76 65.9325 1168.76 59.3701 Q1168.76 51.7138 1173.87 47.825 Q1179.01 43.9361 1189.18 43.9361 L1199.63 43.9361 L1199.63 43.2069 Q1199.63 38.0623 1196.23 35.2672 Q1192.87 32.4315 1186.75 32.4315 Q1182.86 32.4315 1179.17 33.3632 Q1175.49 34.295 1172.09 36.1584 L1172.09 29.2718 Q1176.18 27.692 1180.03 26.9223 Q1183.87 26.1121 1187.52 26.1121 Q1197.36 26.1121 1202.22 31.2163 Q1207.09 36.3204 1207.09 46.6907 Z" fill="#000000" fill-rule="nonzero" fill-opacity="1" /><path clip-path="url(#clip570)" d="M1217.7 72.576 L1217.7 66.3781 Q1225.07 65.2439 1227.34 60.1397 Q1230.09 52.9696 1230.09 34.619 L1230.09 27.2059 L1260.76 27.2059 L1260.76 72.576 L1253.31 72.576 L1253.31 33.1607 L1237.55 33.1607 L1237.55 37.6572 Q1237.55 55.1571 1233.98 63.0159 Q1230.18 71.4012 1217.7 72.576 Z" fill="#000000" fill-rule="nonzero" fill-opacity="1" /><path clip-path="url(#clip570)" d="M1293.05 32.4315 Q1287.05 32.4315 1283.57 37.1306 Q1280.08 41.7891 1280.08 49.9314 Q1280.08 58.0738 1283.53 62.7728 Q1287.01 67.4314 1293.05 67.4314 Q1299 67.4314 1302.48 62.7323 Q1305.97 58.0333 1305.97 49.9314 Q1305.97 41.8701 1302.48 37.1711 Q1299 32.4315 1293.05 32.4315 M1293.05 26.1121 Q1302.77 26.1121 1308.32 32.4315 Q1313.87 38.7509 1313.87 49.9314 Q1313.87 61.0714 1308.32 67.4314 Q1302.77 73.7508 1293.05 73.7508 Q1283.28 73.7508 1277.73 67.4314 Q1272.22 61.0714 1272.22 49.9314 Q1272.22 38.7509 1277.73 32.4315 Q1283.28 26.1121 1293.05 26.1121 Z" fill="#000000" fill-rule="nonzero" fill-opacity="1" /><path clip-path="url(#clip570)" d="M1333.39 51.6733 L1333.39 66.6212 L1344.01 66.6212 Q1349.11 66.6212 1351.78 64.7172 Q1354.46 62.7728 1354.46 59.127 Q1354.46 55.4812 1351.78 53.5773 Q1349.11 51.6733 1344.01 51.6733 L1333.39 51.6733 M1333.39 33.1607 L1333.39 45.7185 L1343.2 45.7185 Q1347.41 45.7185 1350.08 44.0576 Q1352.76 42.3563 1352.76 39.3586 Q1352.76 36.3609 1350.08 34.7811 Q1347.41 33.1607 1343.2 33.1607 L1333.39 33.1607 M1325.94 27.2059 L1343.68 27.2059 Q1351.66 27.2059 1355.96 30.1225 Q1360.25 33.0392 1360.25 38.4269 Q1360.25 42.5993 1358.06 45.0704 Q1355.87 47.5009 1351.58 48.1085 Q1356.73 49.0808 1359.56 52.1594 Q1362.4 55.2381 1362.4 59.8562 Q1362.4 65.9325 1357.7 69.2543 Q1353.04 72.576 1344.37 72.576 L1325.94 72.576 L1325.94 27.2059 Z" fill="#000000" fill-rule="nonzero" fill-opacity="1" /><path clip-path="url(#clip570)" d="M1401.2 27.2059 L1412.1 27.2059 L1424.98 57.5877 L1437.91 27.2059 L1448.72 27.2059 L1448.72 72.576 L1441.23 72.576 L1441.23 34.3355 L1428.71 63.8666 L1421.26 63.8666 L1408.7 34.3355 L1408.7 72.576 L1401.2 72.576 L1401.2 27.2059 Z" fill="#000000" fill-rule="nonzero" fill-opacity="1" /><path clip-path="url(#clip570)" d="M1502.88 48.0275 L1502.88 51.6733 L1468.61 51.6733 Q1469.1 59.3701 1473.23 63.421 Q1477.4 67.4314 1484.82 67.4314 Q1489.11 67.4314 1493.12 66.3781 Q1497.17 65.3249 1501.14 63.2184 L1501.14 70.267 Q1497.13 71.9684 1492.92 72.8596 Q1488.7 73.7508 1484.37 73.7508 Q1473.51 73.7508 1467.15 67.4314 Q1460.83 61.1119 1460.83 50.3365 Q1460.83 39.1965 1466.83 32.6746 Q1472.87 26.1121 1483.07 26.1121 Q1492.23 26.1121 1497.54 32.0264 Q1502.88 37.9003 1502.88 48.0275 M1495.43 45.84 Q1495.35 39.7232 1491.99 36.0774 Q1488.66 32.4315 1483.15 32.4315 Q1476.92 32.4315 1473.15 35.9558 Q1469.42 39.4801 1468.85 45.8805 L1495.43 45.84 Z" fill="#000000" fill-rule="nonzero" fill-opacity="1" /><path clip-path="url(#clip570)" d="M1540.96 27.2059 L1548.37 27.2059 L1548.37 48.5136 L1568.18 27.2059 L1576.85 27.2059 L1560.57 44.6653 L1579.2 72.576 L1571.22 72.576 L1555.95 49.6479 L1548.37 57.7902 L1548.37 72.576 L1540.96 72.576 L1540.96 57.7902 L1533.39 49.6479 L1518.11 72.576 L1510.13 72.576 L1528.77 44.6653 L1512.48 27.2059 L1521.15 27.2059 L1540.96 48.5136 L1540.96 27.2059 Z" fill="#000000" fill-rule="nonzero" fill-opacity="1" /><path clip-path="url(#clip570)" d="M1599.98 66.6212 L1621.61 66.6212 L1621.61 33.1607 L1605.94 33.1607 L1605.94 38.832 Q1605.94 55.5217 1601.16 64.4337 L1599.98 66.6212 M1589.17 66.6212 Q1592.85 65.0008 1594.47 61.5575 Q1598.44 53.0101 1598.44 35.7938 L1598.44 27.2059 L1629.11 27.2059 L1629.11 66.6212 L1635.06 66.6212 L1635.06 84.0401 L1629.11 84.0401 L1629.11 72.576 L1592.33 72.576 L1592.33 84.0401 L1586.37 84.0401 L1586.37 66.6212 L1589.17 66.6212 Z" fill="#000000" fill-rule="nonzero" fill-opacity="1" /><path clip-path="url(#clip570)" d="M1666.09 76.7889 Q1662.93 84.8907 1659.94 87.3618 Q1656.94 89.8329 1651.92 89.8329 L1645.96 89.8329 L1645.96 83.5945 L1650.34 83.5945 Q1653.41 83.5945 1655.12 82.1361 Q1656.82 80.6778 1658.88 75.2496 L1660.22 71.8468 L1641.87 27.2059 L1649.77 27.2059 L1663.95 62.6918 L1678.12 27.2059 L1686.02 27.2059 L1666.09 76.7889 Z" fill="#000000" fill-rule="nonzero" fill-opacity="1" /><path clip-path="url(#clip570)" d="M1743.3 49.7694 Q1734.27 49.7694 1730.79 51.8354 Q1727.3 53.9013 1727.3 58.8839 Q1727.3 62.8538 1729.89 65.2034 Q1732.53 67.5124 1737.02 67.5124 Q1743.22 67.5124 1746.95 63.1374 Q1750.72 58.7219 1750.72 51.4303 L1750.72 49.7694 L1743.3 49.7694 M1758.17 46.6907 L1758.17 72.576 L1750.72 72.576 L1750.72 65.6895 Q1748.16 69.8214 1744.36 71.8063 Q1740.55 73.7508 1735.04 73.7508 Q1728.07 73.7508 1723.94 69.8619 Q1719.85 65.9325 1719.85 59.3701 Q1719.85 51.7138 1724.95 47.825 Q1730.1 43.9361 1740.27 43.9361 L1750.72 43.9361 L1750.72 43.2069 Q1750.72 38.0623 1747.31 35.2672 Q1743.95 32.4315 1737.83 32.4315 Q1733.95 32.4315 1730.26 33.3632 Q1726.57 34.295 1723.17 36.1584 L1723.17 29.2718 Q1727.26 27.692 1731.11 26.9223 Q1734.96 26.1121 1738.6 26.1121 Q1748.45 26.1121 1753.31 31.2163 Q1758.17 36.3204 1758.17 46.6907 Z" fill="#000000" fill-rule="nonzero" fill-opacity="1" /><path clip-path="url(#clip570)" d="M1768.14 27.2059 L1811.6 27.2059 L1811.6 33.1607 L1793.53 33.1607 L1793.53 72.576 L1786.2 72.576 L1786.2 33.1607 L1768.14 33.1607 L1768.14 27.2059 Z" fill="#000000" fill-rule="nonzero" fill-opacity="1" /><path clip-path="url(#clip570)" d="M1842.47 49.7694 Q1833.44 49.7694 1829.95 51.8354 Q1826.47 53.9013 1826.47 58.8839 Q1826.47 62.8538 1829.06 65.2034 Q1831.69 67.5124 1836.19 67.5124 Q1842.39 67.5124 1846.12 63.1374 Q1849.88 58.7219 1849.88 51.4303 L1849.88 49.7694 L1842.47 49.7694 M1857.34 46.6907 L1857.34 72.576 L1849.88 72.576 L1849.88 65.6895 Q1847.33 69.8214 1843.52 71.8063 Q1839.71 73.7508 1834.21 73.7508 Q1827.24 73.7508 1823.11 69.8619 Q1819.01 65.9325 1819.01 59.3701 Q1819.01 51.7138 1824.12 47.825 Q1829.26 43.9361 1839.43 43.9361 L1849.88 43.9361 L1849.88 43.2069 Q1849.88 38.0623 1846.48 35.2672 Q1843.12 32.4315 1837 32.4315 Q1833.11 32.4315 1829.43 33.3632 Q1825.74 34.295 1822.34 36.1584 L1822.34 29.2718 Q1826.43 27.692 1830.28 26.9223 Q1834.12 26.1121 1837.77 26.1121 Q1847.61 26.1121 1852.48 31.2163 Q1857.34 36.3204 1857.34 46.6907 Z" fill="#000000" fill-rule="nonzero" fill-opacity="1" /><path clip-path="url(#clip570)" d="M1872.41 27.2059 L1879.82 27.2059 L1879.82 48.5136 L1900.84 27.2059 L1910 27.2059 L1892.66 44.7463 L1912.23 72.576 L1903.88 72.576 L1887.8 49.6884 L1879.82 57.7902 L1879.82 72.576 L1872.41 72.576 L1872.41 27.2059 Z" fill="#000000" fill-rule="nonzero" fill-opacity="1" /><path clip-path="url(#clip570)" d="M1943.42 49.7694 Q1934.38 49.7694 1930.9 51.8354 Q1927.42 53.9013 1927.42 58.8839 Q1927.42 62.8538 1930.01 65.2034 Q1932.64 67.5124 1937.14 67.5124 Q1943.34 67.5124 1947.06 63.1374 Q1950.83 58.7219 1950.83 51.4303 L1950.83 49.7694 L1943.42 49.7694 M1958.28 46.6907 L1958.28 72.576 L1950.83 72.576 L1950.83 65.6895 Q1948.28 69.8214 1944.47 71.8063 Q1940.66 73.7508 1935.15 73.7508 Q1928.19 73.7508 1924.05 69.8619 Q1919.96 65.9325 1919.96 59.3701 Q1919.96 51.7138 1925.07 47.825 Q1930.21 43.9361 1940.38 43.9361 L1950.83 43.9361 L1950.83 43.2069 Q1950.83 38.0623 1947.43 35.2672 Q1944.07 32.4315 1937.95 32.4315 Q1934.06 32.4315 1930.37 33.3632 Q1926.69 34.295 1923.29 36.1584 L1923.29 29.2718 Q1927.38 27.692 1931.22 26.9223 Q1935.07 26.1121 1938.72 26.1121 Q1948.56 26.1121 1953.42 31.2163 Q1958.28 36.3204 1958.28 46.6907 Z" fill="#000000" fill-rule="nonzero" fill-opacity="1" /><path clip-path="url(#clip570)" d="M1973.35 27.2059 L1984.25 27.2059 L1997.13 57.5877 L2010.06 27.2059 L2020.87 27.2059 L2020.87 72.576 L2013.38 72.576 L2013.38 34.3355 L2000.86 63.8666 L1993.41 63.8666 L1980.85 34.3355 L1980.85 72.576 L1973.35 72.576 L1973.35 27.2059 Z" fill="#000000" fill-rule="nonzero" fill-opacity="1" /><path clip-path="url(#clip570)" d="M2074.79 27.2059 L2074.79 72.576 L2067.38 72.576 L2067.38 36.1584 L2045.5 72.576 L2035.94 72.576 L2035.94 27.2059 L2043.35 27.2059 L2043.35 63.5425 L2065.19 27.2059 L2074.79 27.2059 Z" fill="#000000" fill-rule="nonzero" fill-opacity="1" /><path clip-path="url(#clip571)" d="M274.598 120.723 L274.598 1173.47 L337.041 1173.47 L337.041 120.723 L274.598 120.723 L274.598 120.723  Z" fill="#009af9" fill-rule="evenodd" fill-opacity="1"/>
<polyline clip-path="url(#clip571)" style="stroke:#000000; stroke-linecap:round; stroke-linejoin:round; stroke-width:4; stroke-opacity:1; fill:none" points="274.598,120.723 274.598,1173.47 337.041,1173.47 337.041,120.723 274.598,120.723 "/>
<path clip-path="url(#clip571)" d="M337.041 665.248 L337.041 1173.47 L399.484 1173.47 L399.484 665.248 L337.041 665.248 L337.041 665.248  Z" fill="#009af9" fill-rule="evenodd" fill-opacity="1"/>
<polyline clip-path="url(#clip571)" style="stroke:#000000; stroke-linecap:round; stroke-linejoin:round; stroke-width:4; stroke-opacity:1; fill:none" points="337.041,665.248 337.041,1173.47 399.484,1173.47 399.484,665.248 337.041,665.248 "/>
<path clip-path="url(#clip571)" d="M399.484 701.549 L399.484 1173.47 L461.927 1173.47 L461.927 701.549 L399.484 701.549 L399.484 701.549  Z" fill="#009af9" fill-rule="evenodd" fill-opacity="1"/>
<polyline clip-path="url(#clip571)" style="stroke:#000000; stroke-linecap:round; stroke-linejoin:round; stroke-width:4; stroke-opacity:1; fill:none" points="399.484,701.549 399.484,1173.47 461.927,1173.47 461.927,701.549 399.484,701.549 "/>
<path clip-path="url(#clip571)" d="M461.927 810.454 L461.927 1173.47 L524.371 1173.47 L524.371 810.454 L461.927 810.454 L461.927 810.454  Z" fill="#009af9" fill-rule="evenodd" fill-opacity="1"/>
<polyline clip-path="url(#clip571)" style="stroke:#000000; stroke-linecap:round; stroke-linejoin:round; stroke-width:4; stroke-opacity:1; fill:none" points="461.927,810.454 461.927,1173.47 524.371,1173.47 524.371,810.454 461.927,810.454 "/>
<path clip-path="url(#clip571)" d="M524.371 737.851 L524.371 1173.47 L586.814 1173.47 L586.814 737.851 L524.371 737.851 L524.371 737.851  Z" fill="#009af9" fill-rule="evenodd" fill-opacity="1"/>
<polyline clip-path="url(#clip571)" style="stroke:#000000; stroke-linecap:round; stroke-linejoin:round; stroke-width:4; stroke-opacity:1; fill:none" points="524.371,737.851 524.371,1173.47 586.814,1173.47 586.814,737.851 524.371,737.851 "/>
<path clip-path="url(#clip571)" d="M586.814 955.661 L586.814 1173.47 L649.257 1173.47 L649.257 955.661 L586.814 955.661 L586.814 955.661  Z" fill="#009af9" fill-rule="evenodd" fill-opacity="1"/>
<polyline clip-path="url(#clip571)" style="stroke:#000000; stroke-linecap:round; stroke-linejoin:round; stroke-width:4; stroke-opacity:1; fill:none" points="586.814,955.661 586.814,1173.47 649.257,1173.47 649.257,955.661 586.814,955.661 "/>
<path clip-path="url(#clip571)" d="M649.257 883.058 L649.257 1173.47 L711.7 1173.47 L711.7 883.058 L649.257 883.058 L649.257 883.058  Z" fill="#009af9" fill-rule="evenodd" fill-opacity="1"/>
<polyline clip-path="url(#clip571)" style="stroke:#000000; stroke-linecap:round; stroke-linejoin:round; stroke-width:4; stroke-opacity:1; fill:none" points="649.257,883.058 649.257,1173.47 711.7,1173.47 711.7,883.058 649.257,883.058 "/>
<path clip-path="url(#clip571)" d="M711.7 1137.17 L711.7 1173.47 L774.143 1173.47 L774.143 1137.17 L711.7 1137.17 L711.7 1137.17  Z" fill="#009af9" fill-rule="evenodd" fill-opacity="1"/>
<polyline clip-path="url(#clip571)" style="stroke:#000000; stroke-linecap:round; stroke-linejoin:round; stroke-width:4; stroke-opacity:1; fill:none" points="711.7,1137.17 711.7,1173.47 774.143,1173.47 774.143,1137.17 711.7,1137.17 "/>
<path clip-path="url(#clip571)" d="M774.143 991.963 L774.143 1173.47 L836.586 1173.47 L836.586 991.963 L774.143 991.963 L774.143 991.963  Z" fill="#009af9" fill-rule="evenodd" fill-opacity="1"/>
<polyline clip-path="url(#clip571)" style="stroke:#000000; stroke-linecap:round; stroke-linejoin:round; stroke-width:4; stroke-opacity:1; fill:none" points="774.143,991.963 774.143,1173.47 836.586,1173.47 836.586,991.963 774.143,991.963 "/>
<path clip-path="url(#clip571)" d="M836.586 1064.57 L836.586 1173.47 L899.029 1173.47 L899.029 1064.57 L836.586 1064.57 L836.586 1064.57  Z" fill="#009af9" fill-rule="evenodd" fill-opacity="1"/>
<polyline clip-path="url(#clip571)" style="stroke:#000000; stroke-linecap:round; stroke-linejoin:round; stroke-width:4; stroke-opacity:1; fill:none" points="836.586,1064.57 836.586,1173.47 899.029,1173.47 899.029,1064.57 836.586,1064.57 "/>
<path clip-path="url(#clip571)" d="M899.029 1100.87 L899.029 1173.47 L961.473 1173.47 L961.473 1100.87 L899.029 1100.87 L899.029 1100.87  Z" fill="#009af9" fill-rule="evenodd" fill-opacity="1"/>
<polyline clip-path="url(#clip571)" style="stroke:#000000; stroke-linecap:round; stroke-linejoin:round; stroke-width:4; stroke-opacity:1; fill:none" points="899.029,1100.87 899.029,1173.47 961.473,1173.47 961.473,1100.87 899.029,1100.87 "/>
<path clip-path="url(#clip571)" d="M961.473 1100.87 L961.473 1173.47 L1023.92 1173.47 L1023.92 1100.87 L961.473 1100.87 L961.473 1100.87  Z" fill="#009af9" fill-rule="evenodd" fill-opacity="1"/>
<polyline clip-path="url(#clip571)" style="stroke:#000000; stroke-linecap:round; stroke-linejoin:round; stroke-width:4; stroke-opacity:1; fill:none" points="961.473,1100.87 961.473,1173.47 1023.92,1173.47 1023.92,1100.87 961.473,1100.87 "/>
<path clip-path="url(#clip571)" d="M1023.92 1137.17 L1023.92 1173.47 L1086.36 1173.47 L1086.36 1137.17 L1023.92 1137.17 L1023.92 1137.17  Z" fill="#009af9" fill-rule="evenodd" fill-opacity="1"/>
<polyline clip-path="url(#clip571)" style="stroke:#000000; stroke-linecap:round; stroke-linejoin:round; stroke-width:4; stroke-opacity:1; fill:none" points="1023.92,1137.17 1023.92,1173.47 1086.36,1173.47 1086.36,1137.17 1023.92,1137.17 "/>
<path clip-path="url(#clip571)" d="M1086.36 1173.47 L1086.36 1173.47 L1148.8 1173.47 L1148.8 1173.47 L1086.36 1173.47 L1086.36 1173.47  Z" fill="#009af9" fill-rule="evenodd" fill-opacity="1"/>
<polyline clip-path="url(#clip571)" style="stroke:#000000; stroke-linecap:round; stroke-linejoin:round; stroke-width:4; stroke-opacity:1; fill:none" points="1086.36,1173.47 1086.36,1173.47 1148.8,1173.47 1086.36,1173.47 "/>
<path clip-path="url(#clip571)" d="M1148.8 1100.87 L1148.8 1173.47 L1211.25 1173.47 L1211.25 1100.87 L1148.8 1100.87 L1148.8 1100.87  Z" fill="#009af9" fill-rule="evenodd" fill-opacity="1"/>
<polyline clip-path="url(#clip571)" style="stroke:#000000; stroke-linecap:round; stroke-linejoin:round; stroke-width:4; stroke-opacity:1; fill:none" points="1148.8,1100.87 1148.8,1173.47 1211.25,1173.47 1211.25,1100.87 1148.8,1100.87 "/>
<path clip-path="url(#clip571)" d="M1211.25 1173.47 L1211.25 1173.47 L1273.69 1173.47 L1273.69 1173.47 L1211.25 1173.47 L1211.25 1173.47  Z" fill="#009af9" fill-rule="evenodd" fill-opacity="1"/>
<polyline clip-path="url(#clip571)" style="stroke:#000000; stroke-linecap:round; stroke-linejoin:round; stroke-width:4; stroke-opacity:1; fill:none" points="1211.25,1173.47 1211.25,1173.47 1273.69,1173.47 1211.25,1173.47 "/>
<path clip-path="url(#clip571)" d="M1273.69 1173.47 L1273.69 1173.47 L1336.13 1173.47 L1336.13 1173.47 L1273.69 1173.47 L1273.69 1173.47  Z" fill="#009af9" fill-rule="evenodd" fill-opacity="1"/>
<polyline clip-path="url(#clip571)" style="stroke:#000000; stroke-linecap:round; stroke-linejoin:round; stroke-width:4; stroke-opacity:1; fill:none" points="1273.69,1173.47 1273.69,1173.47 1336.13,1173.47 1273.69,1173.47 "/>
<path clip-path="url(#clip571)" d="M1336.13 1173.47 L1336.13 1173.47 L1398.57 1173.47 L1398.57 1173.47 L1336.13 1173.47 L1336.13 1173.47  Z" fill="#009af9" fill-rule="evenodd" fill-opacity="1"/>
<polyline clip-path="url(#clip571)" style="stroke:#000000; stroke-linecap:round; stroke-linejoin:round; stroke-width:4; stroke-opacity:1; fill:none" points="1336.13,1173.47 1336.13,1173.47 1398.57,1173.47 1336.13,1173.47 "/>
<path clip-path="url(#clip571)" d="M1398.57 1173.47 L1398.57 1173.47 L1461.02 1173.47 L1461.02 1173.47 L1398.57 1173.47 L1398.57 1173.47  Z" fill="#009af9" fill-rule="evenodd" fill-opacity="1"/>
<polyline clip-path="url(#clip571)" style="stroke:#000000; stroke-linecap:round; stroke-linejoin:round; stroke-width:4; stroke-opacity:1; fill:none" points="1398.57,1173.47 1398.57,1173.47 1461.02,1173.47 1398.57,1173.47 "/>
<path clip-path="url(#clip571)" d="M1461.02 1137.17 L1461.02 1173.47 L1523.46 1173.47 L1523.46 1137.17 L1461.02 1137.17 L1461.02 1137.17  Z" fill="#009af9" fill-rule="evenodd" fill-opacity="1"/>
<polyline clip-path="url(#clip571)" style="stroke:#000000; stroke-linecap:round; stroke-linejoin:round; stroke-width:4; stroke-opacity:1; fill:none" points="1461.02,1137.17 1461.02,1173.47 1523.46,1173.47 1523.46,1137.17 1461.02,1137.17 "/>
<path clip-path="url(#clip571)" d="M1523.46 1173.47 L1523.46 1173.47 L1585.9 1173.47 L1585.9 1173.47 L1523.46 1173.47 L1523.46 1173.47  Z" fill="#009af9" fill-rule="evenodd" fill-opacity="1"/>
<polyline clip-path="url(#clip571)" style="stroke:#000000; stroke-linecap:round; stroke-linejoin:round; stroke-width:4; stroke-opacity:1; fill:none" points="1523.46,1173.47 1523.46,1173.47 1585.9,1173.47 1523.46,1173.47 "/>
<path clip-path="url(#clip571)" d="M1585.9 1173.47 L1585.9 1173.47 L1648.35 1173.47 L1648.35 1173.47 L1585.9 1173.47 L1585.9 1173.47  Z" fill="#009af9" fill-rule="evenodd" fill-opacity="1"/>
<polyline clip-path="url(#clip571)" style="stroke:#000000; stroke-linecap:round; stroke-linejoin:round; stroke-width:4; stroke-opacity:1; fill:none" points="1585.9,1173.47 1585.9,1173.47 1648.35,1173.47 1585.9,1173.47 "/>
<path clip-path="url(#clip571)" d="M1648.35 1173.47 L1648.35 1173.47 L1710.79 1173.47 L1710.79 1173.47 L1648.35 1173.47 L1648.35 1173.47  Z" fill="#009af9" fill-rule="evenodd" fill-opacity="1"/>
<polyline clip-path="url(#clip571)" style="stroke:#000000; stroke-linecap:round; stroke-linejoin:round; stroke-width:4; stroke-opacity:1; fill:none" points="1648.35,1173.47 1648.35,1173.47 1710.79,1173.47 1648.35,1173.47 "/>
<path clip-path="url(#clip571)" d="M1710.79 1173.47 L1710.79 1173.47 L1773.23 1173.47 L1773.23 1173.47 L1710.79 1173.47 L1710.79 1173.47  Z" fill="#009af9" fill-rule="evenodd" fill-opacity="1"/>
<polyline clip-path="url(#clip571)" style="stroke:#000000; stroke-linecap:round; stroke-linejoin:round; stroke-width:4; stroke-opacity:1; fill:none" points="1710.79,1173.47 1710.79,1173.47 1773.23,1173.47 1710.79,1173.47 "/>
<path clip-path="url(#clip571)" d="M1773.23 1137.17 L1773.23 1173.47 L1835.68 1173.47 L1835.68 1137.17 L1773.23 1137.17 L1773.23 1137.17  Z" fill="#009af9" fill-rule="evenodd" fill-opacity="1"/>
<polyline clip-path="url(#clip571)" style="stroke:#000000; stroke-linecap:round; stroke-linejoin:round; stroke-width:4; stroke-opacity:1; fill:none" points="1773.23,1137.17 1773.23,1173.47 1835.68,1173.47 1835.68,1137.17 1773.23,1137.17 "/>
<path clip-path="url(#clip571)" d="M1835.68 1173.47 L1835.68 1173.47 L1898.12 1173.47 L1898.12 1173.47 L1835.68 1173.47 L1835.68 1173.47  Z" fill="#009af9" fill-rule="evenodd" fill-opacity="1"/>
<polyline clip-path="url(#clip571)" style="stroke:#000000; stroke-linecap:round; stroke-linejoin:round; stroke-width:4; stroke-opacity:1; fill:none" points="1835.68,1173.47 1835.68,1173.47 1898.12,1173.47 1835.68,1173.47 "/>
<path clip-path="url(#clip571)" d="M1898.12 1137.17 L1898.12 1173.47 L1960.56 1173.47 L1960.56 1137.17 L1898.12 1137.17 L1898.12 1137.17  Z" fill="#009af9" fill-rule="evenodd" fill-opacity="1"/>
<polyline clip-path="url(#clip571)" style="stroke:#000000; stroke-linecap:round; stroke-linejoin:round; stroke-width:4; stroke-opacity:1; fill:none" points="1898.12,1137.17 1898.12,1173.47 1960.56,1173.47 1960.56,1137.17 1898.12,1137.17 "/>
<circle clip-path="url(#clip571)" style="fill:#009af9; stroke:none; fill-opacity:0" cx="305.819" cy="120.723" r="2"/>
<circle clip-path="url(#clip571)" style="fill:#009af9; stroke:none; fill-opacity:0" cx="368.263" cy="665.248" r="2"/>
<circle clip-path="url(#clip571)" style="fill:#009af9; stroke:none; fill-opacity:0" cx="430.706" cy="701.549" r="2"/>
<circle clip-path="url(#clip571)" style="fill:#009af9; stroke:none; fill-opacity:0" cx="493.149" cy="810.454" r="2"/>
<circle clip-path="url(#clip571)" style="fill:#009af9; stroke:none; fill-opacity:0" cx="555.592" cy="737.851" r="2"/>
<circle clip-path="url(#clip571)" style="fill:#009af9; stroke:none; fill-opacity:0" cx="618.035" cy="955.661" r="2"/>
<circle clip-path="url(#clip571)" style="fill:#009af9; stroke:none; fill-opacity:0" cx="680.478" cy="883.058" r="2"/>
<circle clip-path="url(#clip571)" style="fill:#009af9; stroke:none; fill-opacity:0" cx="742.922" cy="1137.17" r="2"/>
<circle clip-path="url(#clip571)" style="fill:#009af9; stroke:none; fill-opacity:0" cx="805.365" cy="991.963" r="2"/>
<circle clip-path="url(#clip571)" style="fill:#009af9; stroke:none; fill-opacity:0" cx="867.808" cy="1064.57" r="2"/>
<circle clip-path="url(#clip571)" style="fill:#009af9; stroke:none; fill-opacity:0" cx="930.251" cy="1100.87" r="2"/>
<circle clip-path="url(#clip571)" style="fill:#009af9; stroke:none; fill-opacity:0" cx="992.694" cy="1100.87" r="2"/>
<circle clip-path="url(#clip571)" style="fill:#009af9; stroke:none; fill-opacity:0" cx="1055.14" cy="1137.17" r="2"/>
<circle clip-path="url(#clip571)" style="fill:#009af9; stroke:none; fill-opacity:0" cx="1117.58" cy="1173.47" r="2"/>
<circle clip-path="url(#clip571)" style="fill:#009af9; stroke:none; fill-opacity:0" cx="1180.02" cy="1100.87" r="2"/>
<circle clip-path="url(#clip571)" style="fill:#009af9; stroke:none; fill-opacity:0" cx="1242.47" cy="1173.47" r="2"/>
<circle clip-path="url(#clip571)" style="fill:#009af9; stroke:none; fill-opacity:0" cx="1304.91" cy="1173.47" r="2"/>
<circle clip-path="url(#clip571)" style="fill:#009af9; stroke:none; fill-opacity:0" cx="1367.35" cy="1173.47" r="2"/>
<circle clip-path="url(#clip571)" style="fill:#009af9; stroke:none; fill-opacity:0" cx="1429.8" cy="1173.47" r="2"/>
<circle clip-path="url(#clip571)" style="fill:#009af9; stroke:none; fill-opacity:0" cx="1492.24" cy="1137.17" r="2"/>
<circle clip-path="url(#clip571)" style="fill:#009af9; stroke:none; fill-opacity:0" cx="1554.68" cy="1173.47" r="2"/>
<circle clip-path="url(#clip571)" style="fill:#009af9; stroke:none; fill-opacity:0" cx="1617.13" cy="1173.47" r="2"/>
<circle clip-path="url(#clip571)" style="fill:#009af9; stroke:none; fill-opacity:0" cx="1679.57" cy="1173.47" r="2"/>
<circle clip-path="url(#clip571)" style="fill:#009af9; stroke:none; fill-opacity:0" cx="1742.01" cy="1173.47" r="2"/>
<circle clip-path="url(#clip571)" style="fill:#009af9; stroke:none; fill-opacity:0" cx="1804.46" cy="1137.17" r="2"/>
<circle clip-path="url(#clip571)" style="fill:#009af9; stroke:none; fill-opacity:0" cx="1866.9" cy="1173.47" r="2"/>
<circle clip-path="url(#clip571)" style="fill:#009af9; stroke:none; fill-opacity:0" cx="1929.34" cy="1137.17" r="2"/>
<polyline clip-path="url(#clip571)" style="stroke:#e26f46; stroke-linecap:round; stroke-linejoin:round; stroke-width:8; stroke-opacity:1; fill:none" points="274.598,166.1 291.225,230.978 307.853,291.677 324.48,348.467 341.108,401.6 357.735,451.311 374.363,497.82 390.99,541.334 407.618,582.045 424.245,620.135 440.873,655.771 457.5,689.113 474.127,720.307 490.755,749.492 507.382,776.797 524.01,802.344 540.637,826.246 557.265,848.608 573.892,869.53 590.52,889.105 607.147,907.419 623.775,924.554 640.402,940.585 657.03,955.583 673.657,969.616 690.285,982.745 706.912,995.028 723.539,1006.52 740.167,1017.27 756.794,1027.33 773.422,1036.74 790.049,1045.55 806.677,1053.79 823.304,1061.5 839.932,1068.71 856.559,1075.45 873.187,1081.77 889.814,1087.67 906.442,1093.2 923.069,1098.37 939.697,1103.21 956.324,1107.73 972.951,1111.96 989.579,1115.93 1006.21,1119.63 1022.83,1123.1 1039.46,1126.34 1056.09,1129.38 1072.72,1132.22 1089.34,1134.87 1105.97,1137.36 1122.6,1139.69 1139.23,1141.86 1155.85,1143.9 1172.48,1145.8 1189.11,1147.58 1205.74,1149.25 1222.36,1150.81 1238.99,1152.27 1255.62,1153.64 1272.25,1154.91 1288.87,1156.11 1305.5,1157.23 1322.13,1158.27 1338.76,1159.25 1355.38,1160.17 1372.01,1161.02 1388.64,1161.83 1405.27,1162.58 1421.89,1163.28 1438.52,1163.93 1455.15,1164.55 1471.78,1165.12 1488.4,1165.66 1505.03,1166.16 1521.66,1166.63 1538.29,1167.07 1554.91,1167.49 1571.54,1167.87 1588.17,1168.23 1604.8,1168.57 1621.42,1168.89 1638.05,1169.18 1654.68,1169.46 1671.31,1169.72 1687.93,1169.96 1704.56,1170.18 1721.19,1170.4 1737.81,1170.59 1754.44,1170.78 1771.07,1170.95 1787.7,1171.11 1804.32,1171.27 1820.95,1171.41 1837.58,1171.54 1854.21,1171.67 1870.83,1171.78 1887.46,1171.89 1904.09,1171.99 1920.72,1172.09 "/>
<path clip-path="url(#clip570)" d="M1065.05 311.335 L2001.61 311.335 L2001.61 155.815 L1065.05 155.815  Z" fill="#ffffff" fill-rule="evenodd" fill-opacity="1"/>
<polyline clip-path="url(#clip570)" style="stroke:#000000; stroke-linecap:round; stroke-linejoin:round; stroke-width:4; stroke-opacity:1; fill:none" points="1065.05,311.335 2001.61,311.335 2001.61,155.815 1065.05,155.815 1065.05,311.335 "/>
<path clip-path="url(#clip570)" d="M1086.1 228.391 L1212.39 228.391 L1212.39 186.919 L1086.1 186.919 L1086.1 228.391  Z" fill="#009af9" fill-rule="evenodd" fill-opacity="1"/>
<polyline clip-path="url(#clip570)" style="stroke:#000000; stroke-linecap:round; stroke-linejoin:round; stroke-width:4; stroke-opacity:1; fill:none" points="1086.1,228.391 1212.39,228.391 1212.39,186.919 1086.1,186.919 1086.1,228.391 "/>
<path clip-path="url(#clip570)" d="M1233.44 217.388 Q1238.32 221.763 1244.25 221.763 Q1250.36 221.763 1253.11 218.476 Q1255.87 215.189 1256.38 209.657 L1237.9 209.657 L1237.9 205.722 L1256.38 205.722 Q1255.87 200.189 1253.11 196.902 Q1250.36 193.592 1244.25 193.592 Q1238.32 193.592 1233.44 197.967 L1233.44 193.037 Q1238.25 189.75 1244.52 189.75 Q1252.28 189.75 1256.79 194.564 Q1261.31 199.356 1261.31 207.666 Q1261.31 215.999 1256.79 220.814 Q1252.28 225.606 1244.52 225.606 Q1238.34 225.606 1233.44 222.273 L1233.44 217.388 Z" fill="#000000" fill-rule="nonzero" fill-opacity="1" /><path clip-path="url(#clip570)" d="M1268.27 199.009 L1274.5 199.009 L1281.86 216.37 L1289.25 199.009 L1295.43 199.009 L1295.43 224.935 L1291.14 224.935 L1291.14 203.083 L1283.99 219.958 L1279.73 219.958 L1272.56 203.083 L1272.56 224.935 L1268.27 224.935 L1268.27 199.009 Z" fill="#000000" fill-rule="nonzero" fill-opacity="1" /><path clip-path="url(#clip570)" d="M1326.42 199.009 L1326.42 224.935 L1322.14 224.935 L1322.14 202.412 L1308.32 202.412 L1308.32 224.935 L1304.04 224.935 L1304.04 199.009 L1326.42 199.009 Z" fill="#000000" fill-rule="nonzero" fill-opacity="1" /><path clip-path="url(#clip570)" d="M1357.23 199.009 L1357.23 224.935 L1353 224.935 L1353 204.125 L1340.5 224.935 L1335.03 224.935 L1335.03 199.009 L1339.27 199.009 L1339.27 219.773 L1351.75 199.009 L1357.23 199.009 Z" fill="#000000" fill-rule="nonzero" fill-opacity="1" /><path clip-path="url(#clip570)" d="M1370.13 221.046 L1370.13 234.796 L1365.84 234.796 L1365.84 199.009 L1370.13 199.009 L1370.13 202.944 Q1371.47 200.629 1373.51 199.518 Q1375.57 198.384 1378.41 198.384 Q1383.14 198.384 1386.07 202.134 Q1389.04 205.884 1389.04 211.995 Q1389.04 218.106 1386.07 221.856 Q1383.14 225.606 1378.41 225.606 Q1375.57 225.606 1373.51 224.495 Q1371.47 223.361 1370.13 221.046 M1384.62 211.995 Q1384.62 207.296 1382.67 204.634 Q1380.75 201.949 1377.37 201.949 Q1373.99 201.949 1372.05 204.634 Q1370.13 207.296 1370.13 211.995 Q1370.13 216.694 1372.05 219.379 Q1373.99 222.041 1377.37 222.041 Q1380.75 222.041 1382.67 219.379 Q1384.62 216.694 1384.62 211.995 Z" fill="#000000" fill-rule="nonzero" fill-opacity="1" /><path clip-path="url(#clip570)" d="M1418.13 199.009 L1418.13 224.935 L1413.9 224.935 L1413.9 204.125 L1401.4 224.935 L1395.94 224.935 L1395.94 199.009 L1400.17 199.009 L1400.17 219.773 L1412.65 199.009 L1418.13 199.009 Z" fill="#000000" fill-rule="nonzero" fill-opacity="1" /><path clip-path="url(#clip570)" d="M1441.88 224.935 L1441.88 214.032 L1433.95 214.032 Q1430.4 214.032 1428.04 211.833 Q1425.91 209.842 1425.91 205.583 L1425.91 199.009 L1430.17 199.009 L1430.17 205.189 Q1430.17 207.898 1431.38 209.263 Q1432.6 210.629 1435.01 210.629 L1441.88 210.629 L1441.88 199.009 L1446.14 199.009 L1446.14 224.935 L1441.88 224.935 Z" fill="#000000" fill-rule="nonzero" fill-opacity="1" /><path clip-path="url(#clip570)" d="M1477.09 210.907 L1477.09 212.99 L1457.51 212.99 Q1457.79 217.388 1460.15 219.703 Q1462.53 221.995 1466.77 221.995 Q1469.22 221.995 1471.51 221.393 Q1473.83 220.791 1476.1 219.587 L1476.1 223.615 Q1473.81 224.587 1471.4 225.097 Q1468.99 225.606 1466.51 225.606 Q1460.31 225.606 1456.68 221.995 Q1453.07 218.384 1453.07 212.226 Q1453.07 205.861 1456.49 202.134 Q1459.94 198.384 1465.77 198.384 Q1471.01 198.384 1474.04 201.763 Q1477.09 205.12 1477.09 210.907 M1472.83 209.657 Q1472.79 206.162 1470.87 204.078 Q1468.97 201.995 1465.82 201.995 Q1462.26 201.995 1460.1 204.009 Q1457.97 206.023 1457.65 209.68 L1472.83 209.657 Z" fill="#000000" fill-rule="nonzero" fill-opacity="1" /><path clip-path="url(#clip570)" d="M1502.74 200.004 L1502.74 203.986 Q1500.94 202.99 1499.11 202.504 Q1497.3 201.995 1495.45 201.995 Q1491.31 201.995 1489.01 204.634 Q1486.72 207.25 1486.72 211.995 Q1486.72 216.74 1489.01 219.379 Q1491.31 221.995 1495.45 221.995 Q1497.3 221.995 1499.11 221.509 Q1500.94 220.999 1502.74 220.004 L1502.74 223.939 Q1500.96 224.773 1499.04 225.189 Q1497.14 225.606 1494.99 225.606 Q1489.13 225.606 1485.68 221.925 Q1482.23 218.245 1482.23 211.995 Q1482.23 205.652 1485.7 202.018 Q1489.2 198.384 1495.26 198.384 Q1497.23 198.384 1499.11 198.801 Q1500.98 199.194 1502.74 200.004 Z" fill="#000000" fill-rule="nonzero" fill-opacity="1" /><path clip-path="url(#clip570)" d="M1509.99 199.009 L1514.22 199.009 L1514.22 211.185 L1526.24 199.009 L1531.47 199.009 L1521.56 209.032 L1532.74 224.935 L1527.97 224.935 L1518.78 211.856 L1514.22 216.486 L1514.22 224.935 L1509.99 224.935 L1509.99 199.009 Z" fill="#000000" fill-rule="nonzero" fill-opacity="1" /><path clip-path="url(#clip570)" d="M1550.56 211.902 Q1545.4 211.902 1543.41 213.083 Q1541.42 214.263 1541.42 217.111 Q1541.42 219.379 1542.9 220.722 Q1544.41 222.041 1546.98 222.041 Q1550.52 222.041 1552.65 219.541 Q1554.8 217.018 1554.8 212.851 L1554.8 211.902 L1550.56 211.902 M1559.06 210.143 L1559.06 224.935 L1554.8 224.935 L1554.8 220.999 Q1553.34 223.361 1551.17 224.495 Q1548.99 225.606 1545.84 225.606 Q1541.86 225.606 1539.5 223.384 Q1537.16 221.138 1537.16 217.388 Q1537.16 213.013 1540.08 210.791 Q1543.02 208.569 1548.83 208.569 L1554.8 208.569 L1554.8 208.152 Q1554.8 205.213 1552.86 203.615 Q1550.94 201.995 1547.44 201.995 Q1545.22 201.995 1543.11 202.527 Q1541 203.06 1539.06 204.125 L1539.06 200.189 Q1541.4 199.287 1543.6 198.847 Q1545.8 198.384 1547.88 198.384 Q1553.5 198.384 1556.28 201.3 Q1559.06 204.217 1559.06 210.143 Z" fill="#000000" fill-rule="nonzero" fill-opacity="1" /><path clip-path="url(#clip570)" d="M1572.12 206.486 Q1572.12 208.407 1573.6 209.495 Q1575.08 210.583 1577.83 210.583 L1583.57 210.583 L1583.57 202.412 L1577.83 202.412 Q1575.08 202.412 1573.6 203.476 Q1572.12 204.541 1572.12 206.486 M1566.05 224.935 L1573.97 213.569 Q1571.28 212.967 1569.5 211.393 Q1567.72 209.796 1567.72 206.486 Q1567.72 202.736 1570.19 200.884 Q1572.69 199.009 1577.72 199.009 L1587.86 199.009 L1587.86 224.935 L1583.57 224.935 L1583.57 213.986 L1578.27 213.986 L1570.63 224.935 L1566.05 224.935 Z" fill="#000000" fill-rule="nonzero" fill-opacity="1" /><path clip-path="url(#clip570)" d="M1633.64 199.009 L1633.64 224.935 L1629.36 224.935 L1629.36 202.412 L1615.54 202.412 L1615.54 224.935 L1611.26 224.935 L1611.26 199.009 L1633.64 199.009 Z" fill="#000000" fill-rule="nonzero" fill-opacity="1" /><path clip-path="url(#clip570)" d="M1639.71 224.935 L1639.71 221.393 Q1643.92 220.745 1645.22 217.828 Q1646.79 213.731 1646.79 203.245 L1646.79 199.009 L1664.31 199.009 L1664.31 224.935 L1660.05 224.935 L1660.05 202.412 L1651.05 202.412 L1651.05 204.981 Q1651.05 214.981 1649.01 219.472 Q1646.84 224.263 1639.71 224.935 Z" fill="#000000" fill-rule="nonzero" fill-opacity="1" /><path clip-path="url(#clip570)" d="M1682.76 201.995 Q1679.34 201.995 1677.35 204.68 Q1675.36 207.342 1675.36 211.995 Q1675.36 216.648 1677.32 219.333 Q1679.31 221.995 1682.76 221.995 Q1686.17 221.995 1688.16 219.31 Q1690.15 216.624 1690.15 211.995 Q1690.15 207.388 1688.16 204.703 Q1686.17 201.995 1682.76 201.995 M1682.76 198.384 Q1688.32 198.384 1691.49 201.995 Q1694.66 205.606 1694.66 211.995 Q1694.66 218.361 1691.49 221.995 Q1688.32 225.606 1682.76 225.606 Q1677.18 225.606 1674.01 221.995 Q1670.87 218.361 1670.87 211.995 Q1670.87 205.606 1674.01 201.995 Q1677.18 198.384 1682.76 198.384 Z" fill="#000000" fill-rule="nonzero" fill-opacity="1" /><path clip-path="url(#clip570)" d="M1698.64 199.009 L1723.48 199.009 L1723.48 202.412 L1713.16 202.412 L1713.16 224.935 L1708.97 224.935 L1708.97 202.412 L1698.64 202.412 L1698.64 199.009 Z" fill="#000000" fill-rule="nonzero" fill-opacity="1" /><path clip-path="url(#clip570)" d="M1729.17 199.009 L1733.46 199.009 L1733.46 209.587 L1747.28 209.587 L1747.28 199.009 L1751.56 199.009 L1751.56 224.935 L1747.28 224.935 L1747.28 212.99 L1733.46 212.99 L1733.46 224.935 L1729.17 224.935 L1729.17 199.009 Z" fill="#000000" fill-rule="nonzero" fill-opacity="1" /><path clip-path="url(#clip570)" d="M1770.38 201.995 Q1766.95 201.995 1764.96 204.68 Q1762.97 207.342 1762.97 211.995 Q1762.97 216.648 1764.94 219.333 Q1766.93 221.995 1770.38 221.995 Q1773.78 221.995 1775.77 219.31 Q1777.76 216.624 1777.76 211.995 Q1777.76 207.388 1775.77 204.703 Q1773.78 201.995 1770.38 201.995 M1770.38 198.384 Q1775.93 198.384 1779.11 201.995 Q1782.28 205.606 1782.28 211.995 Q1782.28 218.361 1779.11 221.995 Q1775.93 225.606 1770.38 225.606 Q1764.8 225.606 1761.63 221.995 Q1758.48 218.361 1758.48 211.995 Q1758.48 205.606 1761.63 201.995 Q1764.8 198.384 1770.38 198.384 Z" fill="#000000" fill-rule="nonzero" fill-opacity="1" /><path clip-path="url(#clip570)" d="M1807.99 200.004 L1807.99 203.986 Q1806.19 202.99 1804.36 202.504 Q1802.55 201.995 1800.7 201.995 Q1796.56 201.995 1794.27 204.634 Q1791.98 207.25 1791.98 211.995 Q1791.98 216.74 1794.27 219.379 Q1796.56 221.995 1800.7 221.995 Q1802.55 221.995 1804.36 221.509 Q1806.19 220.999 1807.99 220.004 L1807.99 223.939 Q1806.21 224.773 1804.29 225.189 Q1802.39 225.606 1800.24 225.606 Q1794.38 225.606 1790.93 221.925 Q1787.48 218.245 1787.48 211.995 Q1787.48 205.652 1790.96 202.018 Q1794.45 198.384 1800.52 198.384 Q1802.48 198.384 1804.36 198.801 Q1806.23 199.194 1807.99 200.004 Z" fill="#000000" fill-rule="nonzero" fill-opacity="1" /><path clip-path="url(#clip570)" d="M1812.32 199.009 L1837.16 199.009 L1837.16 202.412 L1826.84 202.412 L1826.84 224.935 L1822.65 224.935 L1822.65 202.412 L1812.32 202.412 L1812.32 199.009 Z" fill="#000000" fill-rule="nonzero" fill-opacity="1" /><path clip-path="url(#clip570)" d="M1859.15 217.249 Q1859.15 215.166 1857.62 214.078 Q1856.12 212.99 1853.2 212.99 L1847.14 212.99 L1847.14 221.532 L1853.2 221.532 Q1856.12 221.532 1857.62 220.444 Q1859.15 219.333 1859.15 217.249 M1842.85 199.009 L1847.14 199.009 L1847.14 209.587 L1853.39 209.587 Q1858.34 209.587 1861 211.486 Q1863.69 213.361 1863.69 217.249 Q1863.69 221.138 1861 223.036 Q1858.34 224.935 1853.39 224.935 L1842.85 224.935 L1842.85 199.009 Z" fill="#000000" fill-rule="nonzero" fill-opacity="1" /><polyline clip-path="url(#clip570)" style="stroke:#e26f46; stroke-linecap:round; stroke-linejoin:round; stroke-width:8; stroke-opacity:1; fill:none" points="1086.1,259.495 1212.39,259.495 "/>
<path clip-path="url(#clip570)" d="M1233.44 269.228 Q1238.32 273.603 1244.25 273.603 Q1250.36 273.603 1253.11 270.316 Q1255.87 267.029 1256.38 261.497 L1237.9 261.497 L1237.9 257.562 L1256.38 257.562 Q1255.87 252.029 1253.11 248.742 Q1250.36 245.432 1244.25 245.432 Q1238.32 245.432 1233.44 249.807 L1233.44 244.877 Q1238.25 241.59 1244.52 241.59 Q1252.28 241.59 1256.79 246.404 Q1261.31 251.196 1261.31 259.506 Q1261.31 267.839 1256.79 272.654 Q1252.28 277.446 1244.52 277.446 Q1238.34 277.446 1233.44 274.113 L1233.44 269.228 Z" fill="#000000" fill-rule="nonzero" fill-opacity="1" /><path clip-path="url(#clip570)" d="M1268.27 250.849 L1272.51 250.849 L1272.51 263.025 L1284.52 250.849 L1289.76 250.849 L1279.85 260.872 L1291.03 276.775 L1286.26 276.775 L1277.07 263.696 L1272.51 268.326 L1272.51 276.775 L1268.27 276.775 L1268.27 250.849 Z" fill="#000000" fill-rule="nonzero" fill-opacity="1" /><path clip-path="url(#clip570)" d="M1315.73 251.844 L1315.73 255.826 Q1313.92 254.83 1312.09 254.344 Q1310.29 253.835 1308.44 253.835 Q1304.29 253.835 1302 256.474 Q1299.71 259.09 1299.71 263.835 Q1299.71 268.58 1302 271.219 Q1304.29 273.835 1308.44 273.835 Q1310.29 273.835 1312.09 273.349 Q1313.92 272.839 1315.73 271.844 L1315.73 275.779 Q1313.95 276.613 1312.02 277.029 Q1310.13 277.446 1307.97 277.446 Q1302.12 277.446 1298.67 273.765 Q1295.22 270.085 1295.22 263.835 Q1295.22 257.492 1298.69 253.858 Q1302.19 250.224 1308.25 250.224 Q1310.22 250.224 1312.09 250.641 Q1313.97 251.034 1315.73 251.844 Z" fill="#000000" fill-rule="nonzero" fill-opacity="1" /><path clip-path="url(#clip570)" d="M1345.36 250.849 L1345.36 276.775 L1341.08 276.775 L1341.08 254.252 L1327.26 254.252 L1327.26 276.775 L1322.97 276.775 L1322.97 250.849 L1345.36 250.849 Z" fill="#000000" fill-rule="nonzero" fill-opacity="1" /><path clip-path="url(#clip570)" d="M1364.18 253.835 Q1360.75 253.835 1358.76 256.52 Q1356.77 259.182 1356.77 263.835 Q1356.77 268.488 1358.74 271.173 Q1360.73 273.835 1364.18 273.835 Q1367.58 273.835 1369.57 271.15 Q1371.56 268.464 1371.56 263.835 Q1371.56 259.228 1369.57 256.543 Q1367.58 253.835 1364.18 253.835 M1364.18 250.224 Q1369.73 250.224 1372.9 253.835 Q1376.08 257.446 1376.08 263.835 Q1376.08 270.201 1372.9 273.835 Q1369.73 277.446 1364.18 277.446 Q1358.6 277.446 1355.43 273.835 Q1352.28 270.201 1352.28 263.835 Q1352.28 257.446 1355.43 253.835 Q1358.6 250.224 1364.18 250.224 Z" fill="#000000" fill-rule="nonzero" fill-opacity="1" /><path clip-path="url(#clip570)" d="M1382.97 250.849 L1387.26 250.849 L1387.26 261.427 L1401.07 261.427 L1401.07 250.849 L1405.36 250.849 L1405.36 276.775 L1401.07 276.775 L1401.07 264.83 L1387.26 264.83 L1387.26 276.775 L1382.97 276.775 L1382.97 250.849 Z" fill="#000000" fill-rule="nonzero" fill-opacity="1" /><path clip-path="url(#clip570)" d="M1436.31 262.747 L1436.31 264.83 L1416.72 264.83 Q1417 269.228 1419.36 271.543 Q1421.75 273.835 1425.98 273.835 Q1428.44 273.835 1430.73 273.233 Q1433.04 272.631 1435.31 271.427 L1435.31 275.455 Q1433.02 276.427 1430.61 276.937 Q1428.2 277.446 1425.73 277.446 Q1419.52 277.446 1415.89 273.835 Q1412.28 270.224 1412.28 264.066 Q1412.28 257.701 1415.7 253.974 Q1419.15 250.224 1424.99 250.224 Q1430.22 250.224 1433.25 253.603 Q1436.31 256.96 1436.31 262.747 M1432.05 261.497 Q1432 258.002 1430.08 255.918 Q1428.18 253.835 1425.03 253.835 Q1421.47 253.835 1419.32 255.849 Q1417.19 257.863 1416.86 261.52 L1432.05 261.497 Z" fill="#000000" fill-rule="nonzero" fill-opacity="1" /><path clip-path="url(#clip570)" d="M1443.13 250.849 L1447.42 250.849 L1447.42 261.427 L1461.24 261.427 L1461.24 250.849 L1465.52 250.849 L1465.52 276.775 L1461.24 276.775 L1461.24 264.83 L1447.42 264.83 L1447.42 276.775 L1443.13 276.775 L1443.13 250.849 Z" fill="#000000" fill-rule="nonzero" fill-opacity="1" /><path clip-path="url(#clip570)" d="M1496.51 276.775 L1474.13 276.775 L1474.13 250.849 L1478.41 250.849 L1478.41 273.372 L1492.23 273.372 L1492.23 250.849 L1496.51 250.849 L1496.51 273.372 L1499.92 273.372 L1499.92 283.326 L1496.51 283.326 L1496.51 276.775 Z" fill="#000000" fill-rule="nonzero" fill-opacity="1" /><path clip-path="url(#clip570)" d="M1528.6 250.849 L1528.6 276.775 L1524.36 276.775 L1524.36 255.965 L1511.86 276.775 L1506.4 276.775 L1506.4 250.849 L1510.63 250.849 L1510.63 271.613 L1523.11 250.849 L1528.6 250.849 Z" fill="#000000" fill-rule="nonzero" fill-opacity="1" /><path clip-path="url(#clip570)" d="M1549.15 263.742 Q1543.99 263.742 1542 264.923 Q1540.01 266.103 1540.01 268.951 Q1540.01 271.219 1541.49 272.562 Q1543 273.881 1545.56 273.881 Q1549.11 273.881 1551.24 271.381 Q1553.39 268.858 1553.39 264.691 L1553.39 263.742 L1549.15 263.742 M1557.65 261.983 L1557.65 276.775 L1553.39 276.775 L1553.39 272.839 Q1551.93 275.201 1549.75 276.335 Q1547.58 277.446 1544.43 277.446 Q1540.45 277.446 1538.09 275.224 Q1535.75 272.978 1535.75 269.228 Q1535.75 264.853 1538.67 262.631 Q1541.61 260.409 1547.42 260.409 L1553.39 260.409 L1553.39 259.992 Q1553.39 257.053 1551.44 255.455 Q1549.52 253.835 1546.03 253.835 Q1543.81 253.835 1541.7 254.367 Q1539.59 254.9 1537.65 255.965 L1537.65 252.029 Q1539.99 251.127 1542.19 250.687 Q1544.38 250.224 1546.47 250.224 Q1552.09 250.224 1554.87 253.14 Q1557.65 256.057 1557.65 261.983 Z" fill="#000000" fill-rule="nonzero" fill-opacity="1" /><path clip-path="url(#clip570)" d="M1563.71 276.775 L1563.71 273.233 Q1567.93 272.585 1569.22 269.668 Q1570.8 265.571 1570.8 255.085 L1570.8 250.849 L1588.32 250.849 L1588.32 276.775 L1584.06 276.775 L1584.06 254.252 L1575.06 254.252 L1575.06 256.821 Q1575.06 266.821 1573.02 271.312 Q1570.84 276.103 1563.71 276.775 Z" fill="#000000" fill-rule="nonzero" fill-opacity="1" /><path clip-path="url(#clip570)" d="M1612.86 269.089 Q1612.86 267.006 1611.33 265.918 Q1609.82 264.83 1606.91 264.83 L1600.84 264.83 L1600.84 273.372 L1606.91 273.372 Q1609.82 273.372 1611.33 272.284 Q1612.86 271.173 1612.86 269.089 M1596.56 250.849 L1600.84 250.849 L1600.84 261.427 L1607.09 261.427 Q1612.05 261.427 1614.71 263.326 Q1617.39 265.201 1617.39 269.089 Q1617.39 272.978 1614.71 274.876 Q1612.05 276.775 1607.09 276.775 L1596.56 276.775 L1596.56 250.849 Z" fill="#000000" fill-rule="nonzero" fill-opacity="1" /><path clip-path="url(#clip570)" d="M1624.5 250.849 L1628.78 250.849 L1628.78 261.427 L1642.6 261.427 L1642.6 250.849 L1646.88 250.849 L1646.88 276.775 L1642.6 276.775 L1642.6 264.83 L1628.78 264.83 L1628.78 276.775 L1624.5 276.775 L1624.5 250.849 Z" fill="#000000" fill-rule="nonzero" fill-opacity="1" /><path clip-path="url(#clip570)" d="M1667.44 263.742 Q1662.28 263.742 1660.29 264.923 Q1658.3 266.103 1658.3 268.951 Q1658.3 271.219 1659.78 272.562 Q1661.28 273.881 1663.85 273.881 Q1667.39 273.881 1669.52 271.381 Q1671.68 268.858 1671.68 264.691 L1671.68 263.742 L1667.44 263.742 M1675.93 261.983 L1675.93 276.775 L1671.68 276.775 L1671.68 272.839 Q1670.22 275.201 1668.04 276.335 Q1665.87 277.446 1662.72 277.446 Q1658.74 277.446 1656.37 275.224 Q1654.04 272.978 1654.04 269.228 Q1654.04 264.853 1656.95 262.631 Q1659.89 260.409 1665.7 260.409 L1671.68 260.409 L1671.68 259.992 Q1671.68 257.053 1669.73 255.455 Q1667.81 253.835 1664.31 253.835 Q1662.09 253.835 1659.99 254.367 Q1657.88 254.9 1655.93 255.965 L1655.93 252.029 Q1658.27 251.127 1660.47 250.687 Q1662.67 250.224 1664.75 250.224 Q1670.38 250.224 1673.16 253.14 Q1675.93 256.057 1675.93 261.983 Z" fill="#000000" fill-rule="nonzero" fill-opacity="1" /><path clip-path="url(#clip570)" d="M1688.99 258.326 Q1688.99 260.247 1690.47 261.335 Q1691.95 262.423 1694.71 262.423 L1700.45 262.423 L1700.45 254.252 L1694.71 254.252 Q1691.95 254.252 1690.47 255.316 Q1688.99 256.381 1688.99 258.326 M1682.93 276.775 L1690.84 265.409 Q1688.16 264.807 1686.37 263.233 Q1684.59 261.636 1684.59 258.326 Q1684.59 254.576 1687.07 252.724 Q1689.57 250.849 1694.59 250.849 L1704.73 250.849 L1704.73 276.775 L1700.45 276.775 L1700.45 265.826 L1695.15 265.826 L1687.51 276.775 L1682.93 276.775 Z" fill="#000000" fill-rule="nonzero" fill-opacity="1" /><path clip-path="url(#clip570)" d="M1750.52 250.849 L1750.52 276.775 L1746.24 276.775 L1746.24 254.252 L1732.42 254.252 L1732.42 276.775 L1728.13 276.775 L1728.13 250.849 L1750.52 250.849 Z" fill="#000000" fill-rule="nonzero" fill-opacity="1" /><path clip-path="url(#clip570)" d="M1756.58 276.775 L1756.58 273.233 Q1760.8 272.585 1762.09 269.668 Q1763.67 265.571 1763.67 255.085 L1763.67 250.849 L1781.19 250.849 L1781.19 276.775 L1776.93 276.775 L1776.93 254.252 L1767.92 254.252 L1767.92 256.821 Q1767.92 266.821 1765.89 271.312 Q1763.71 276.103 1756.58 276.775 Z" fill="#000000" fill-rule="nonzero" fill-opacity="1" /><path clip-path="url(#clip570)" d="M1799.64 253.835 Q1796.21 253.835 1794.22 256.52 Q1792.23 259.182 1792.23 263.835 Q1792.23 268.488 1794.2 271.173 Q1796.19 273.835 1799.64 273.835 Q1803.04 273.835 1805.03 271.15 Q1807.02 268.464 1807.02 263.835 Q1807.02 259.228 1805.03 256.543 Q1803.04 253.835 1799.64 253.835 M1799.64 250.224 Q1805.19 250.224 1808.36 253.835 Q1811.54 257.446 1811.54 263.835 Q1811.54 270.201 1808.36 273.835 Q1805.19 277.446 1799.64 277.446 Q1794.06 277.446 1790.89 273.835 Q1787.74 270.201 1787.74 263.835 Q1787.74 257.446 1790.89 253.835 Q1794.06 250.224 1799.64 250.224 Z" fill="#000000" fill-rule="nonzero" fill-opacity="1" /><path clip-path="url(#clip570)" d="M1815.52 250.849 L1840.35 250.849 L1840.35 254.252 L1830.03 254.252 L1830.03 276.775 L1825.84 276.775 L1825.84 254.252 L1815.52 254.252 L1815.52 250.849 Z" fill="#000000" fill-rule="nonzero" fill-opacity="1" /><path clip-path="url(#clip570)" d="M1846.05 250.849 L1850.33 250.849 L1850.33 261.427 L1864.15 261.427 L1864.15 250.849 L1868.43 250.849 L1868.43 276.775 L1864.15 276.775 L1864.15 264.83 L1850.33 264.83 L1850.33 276.775 L1846.05 276.775 L1846.05 250.849 Z" fill="#000000" fill-rule="nonzero" fill-opacity="1" /><path clip-path="url(#clip570)" d="M1887.25 253.835 Q1883.83 253.835 1881.84 256.52 Q1879.85 259.182 1879.85 263.835 Q1879.85 268.488 1881.81 271.173 Q1883.8 273.835 1887.25 273.835 Q1890.66 273.835 1892.65 271.15 Q1894.64 268.464 1894.64 263.835 Q1894.64 259.228 1892.65 256.543 Q1890.66 253.835 1887.25 253.835 M1887.25 250.224 Q1892.81 250.224 1895.98 253.835 Q1899.15 257.446 1899.15 263.835 Q1899.15 270.201 1895.98 273.835 Q1892.81 277.446 1887.25 277.446 Q1881.67 277.446 1878.5 273.835 Q1875.35 270.201 1875.35 263.835 Q1875.35 257.446 1878.5 253.835 Q1881.67 250.224 1887.25 250.224 Z" fill="#000000" fill-rule="nonzero" fill-opacity="1" /><path clip-path="url(#clip570)" d="M1924.87 251.844 L1924.87 255.826 Q1923.06 254.83 1921.23 254.344 Q1919.43 253.835 1917.58 253.835 Q1913.43 253.835 1911.14 256.474 Q1908.85 259.09 1908.85 263.835 Q1908.85 268.58 1911.14 271.219 Q1913.43 273.835 1917.58 273.835 Q1919.43 273.835 1921.23 273.349 Q1923.06 272.839 1924.87 271.844 L1924.87 275.779 Q1923.09 276.613 1921.16 277.029 Q1919.27 277.446 1917.11 277.446 Q1911.26 277.446 1907.81 273.765 Q1904.36 270.085 1904.36 263.835 Q1904.36 257.492 1907.83 253.858 Q1911.33 250.224 1917.39 250.224 Q1919.36 250.224 1921.23 250.641 Q1923.11 251.034 1924.87 251.844 Z" fill="#000000" fill-rule="nonzero" fill-opacity="1" /><path clip-path="url(#clip570)" d="M1929.2 250.849 L1954.03 250.849 L1954.03 254.252 L1943.71 254.252 L1943.71 276.775 L1939.52 276.775 L1939.52 254.252 L1929.2 254.252 L1929.2 250.849 Z" fill="#000000" fill-rule="nonzero" fill-opacity="1" /><path clip-path="url(#clip570)" d="M1976.03 269.089 Q1976.03 267.006 1974.5 265.918 Q1972.99 264.83 1970.08 264.83 L1964.01 264.83 L1964.01 273.372 L1970.08 273.372 Q1972.99 273.372 1974.5 272.284 Q1976.03 271.173 1976.03 269.089 M1959.73 250.849 L1964.01 250.849 L1964.01 261.427 L1970.26 261.427 Q1975.22 261.427 1977.88 263.326 Q1980.56 265.201 1980.56 269.089 Q1980.56 272.978 1977.88 274.876 Q1975.22 276.775 1970.26 276.775 L1959.73 276.775 L1959.73 250.849 Z" fill="#000000" fill-rule="nonzero" fill-opacity="1" /></svg>
